<?xml version="1.0" encoding="UTF-8"?>
<!DOCTYPE svg PUBLIC "-//W3C//DTD SVG 1.1//EN" "http://www.w3.org/Graphics/SVG/1.1/DTD/svg11.dtd">
<!-- Creator: CorelDRAW 2020 (64-Bit Evaluation Version) -->
<svg xmlns="http://www.w3.org/2000/svg" xml:space="preserve" width="1.1in" height="1.35in" version="1.1" style="shape-rendering:geometricPrecision; text-rendering:geometricPrecision; image-rendering:optimizeQuality; fill-rule:evenodd; clip-rule:evenodd"
viewBox="0 0 1100 1350"
 xmlns:xlink="http://www.w3.org/1999/xlink"
 xmlns:xodm="http://www.corel.com/coreldraw/odm/2003">
 <defs>
  <style type="text/css">
   <![CDATA[
    .fil0 {fill:#CACAC9;fill-rule:nonzero}
   ]]>
  </style>
 </defs>
 <g id="Layer_x0020_1">
  <metadata id="CorelCorpID_0Corel-Layer"/>
  <g id="_2301561408704">
   <g>
    <path class="fil0" d="M414.78 374.74l-9.74 103.6 -31.86 338.46c-23.67,-20.7 -67.12,-16.13 -101.46,12.05 -37.09,30.37 -49.37,76.66 -27.49,103.36 21.93,26.69 69.7,23.76 106.81,-6.63 22.5,-18.48 35.78,-42.79 37.93,-65.01l0.08 0.02 35.79 -380.38 369.91 34.85 -31.87 338.42c-23.65,-20.7 -67.14,-16.13 -101.45,12.05 -37.09,30.37 -49.38,76.66 -27.45,103.39 21.89,26.66 69.67,23.73 106.74,-6.65 22.5,-18.52 35.84,-42.74 37.93,-65l0.11 0.02 35.8 -380.39 9.71 -103.6 -409.49 -38.55z"/>
   </g>
   <path class="fil0" d="M236.48 879.69l-0.99 3.64c0.3,-1.21 0.63,-2.42 0.99,-3.64z"/>
   <path class="fil0" d="M253.41 847.54l-18.19 66.94c-2.57,-9.61 -2.4,-20.28 0.28,-31.15l0.99 -3.64c3.24,-10.91 8.95,-21.92 16.93,-32.15z"/>
   <path class="fil0" d="M265.06 834.72l-24.91 91.65c-2.18,-3.71 -3.82,-7.69 -4.94,-11.88l18.19 -66.94c3.46,-4.44 7.35,-8.74 11.65,-12.82z"/>
   <path class="fil0" d="M275.69 825.73l-29.54 108.68c-0.67,-0.71 -1.31,-1.44 -1.93,-2.2 -1.52,-1.85 -2.87,-3.81 -4.07,-5.85l24.91 -91.65c2.12,-2.01 4.34,-3.97 6.65,-5.87 1.31,-1.07 2.64,-2.11 3.98,-3.12z"/>
   <path class="fil0" d="M285.66 818.98l-32.95 121.22c-2.35,-1.71 -4.54,-3.65 -6.55,-5.79l29.54 -108.68c3.26,-2.46 6.59,-4.7 9.96,-6.75z"/>
   <path class="fil0" d="M295.3 813.74l-35.53 130.73c-2.48,-1.23 -4.84,-2.66 -7.06,-4.28l32.95 -121.22c3.18,-1.93 6.4,-3.67 9.64,-5.23z"/>
   <path class="fil0" d="M422.59 375.48l-12.04 44.33 4.24 -45.06 7.81 0.74zm-118.02 434.34l-37.4 137.65c-2.57,-0.82 -5.04,-1.82 -7.4,-2.99l35.53 -130.73c3.08,-1.48 6.18,-2.79 9.27,-3.93z"/>
   <path class="fil0" d="M430.6 376.23l-24.4 89.75 4.34 -46.18 12.04 -44.33 8.01 0.75zm-117.09 430.75l-38.71 142.4c-2.62,-0.48 -5.16,-1.11 -7.63,-1.91l37.4 -137.65c2.98,-1.1 5.97,-2.05 8.94,-2.84z"/>
   <path class="fil0" d="M438.57 376.98l-36.69 134.94 3.16 -33.57 1.16 -12.36 24.4 -89.75 7.96 0.75zm-116.39 428.12l-39.48 145.22c-2.69,-0.16 -5.33,-0.48 -7.9,-0.94l38.71 -142.4c2.91,-0.78 5.8,-1.41 8.67,-1.88z"/>
   <path class="fil0" d="M446.53 377.73l-48.98 180.22 4.33 -46.03 36.69 -134.94 7.96 0.75zm-115.89 426.4l-39.74 146.22c-2.78,0.14 -5.52,0.13 -8.21,-0.04l39.48 -145.22c2.85,-0.47 5.68,-0.79 8.46,-0.97z"/>
   <path class="fil0" d="M454.49 378.48l-27.7 101.92 -1.95 -0.19 -1.06 11.25 -30.56 112.41 4.32 -45.93 48.98 -180.22 7.96 0.75zm-115.67 425.57l-39.54 145.47c-2.82,0.43 -5.62,0.7 -8.37,0.83l39.74 -146.22c2.77,-0.17 5.5,-0.2 8.18,-0.08z"/>
   <path class="fil0" d="M462.45 379.23l-27.69 101.92 -7.97 -0.75 27.7 -101.92 7.96 0.75zm-43.01 158.28l-30.56 112.48 4.34 -46.11 30.56 -112.41 -4.33 46.04zm-72.64 267.36l-38.83 142.89c-2.92,0.74 -5.82,1.32 -8.7,1.76l39.54 -145.47c2.72,0.12 5.39,0.39 7.98,0.82z"/>
   <path class="fil0" d="M470.46 379.98l-27.71 101.92 -8 -0.76 27.69 -101.92 8.01 0.76zm-55.35 203.64l-30.56 112.41 4.33 -46.05 30.56 -112.48 -4.33 46.11zm-60.63 223.02l-37.63 138.43c-2.96,1.05 -5.93,1.94 -8.88,2.69l38.83 -142.89c2.63,0.43 5.2,1.02 7.68,1.77z"/>
   <path class="fil0" d="M478.43 380.73l-27.71 101.92 -7.96 -0.75 27.71 -101.92 7.96 0.75zm-67.63 248.8l-30.56 112.41 4.32 -45.9 30.56 -112.41 -4.32 45.91zm-48.92 179.93l-35.85 131.87c-3.04,1.41 -6.1,2.66 -9.17,3.74l37.63 -138.43c2.56,0.78 5.02,1.71 7.39,2.82z"/>
   <path class="fil0" d="M486.39 381.48l-27.7 101.92 -7.97 -0.75 27.71 -101.92 7.97 0.75zm-79.94 294.13l-30.57 112.47 4.34 -46.15 30.56 -112.41 -4.34 46.09zm-37.48 137.91l-33.38 122.8c-3.16,1.85 -6.36,3.52 -9.57,5l35.85 -131.87c2.49,1.17 4.87,2.53 7.1,4.07z"/>
   <path class="fil0" d="M494.4 382.24l-27.7 101.93 -8.02 -0.76 27.7 -101.92 8.01 0.75zm-92.3 339.64l-56.5 207.91c-3.28,2.39 -6.61,4.57 -10,6.54l33.38 -122.8c1.46,1.01 2.87,2.09 4.21,3.27l2.7 -28.71 30.57 -112.47 -4.35 46.26z"/>
   <path class="fil0" d="M502.36 382.98l-27.7 101.93 -7.96 -0.75 27.7 -101.93 7.96 0.75zm-104.58 384.78l-41.7 153.44c-1.63,1.49 -3.31,2.95 -5.04,4.38 -1.79,1.46 -3.6,2.87 -5.44,4.2l56.5 -207.91 -4.32 45.89z"/>
   <path class="fil0" d="M510.33 383.74l-27.71 101.93 -7.96 -0.75 27.7 -101.93 7.97 0.75zm-116.86 429.91l-25.95 95.47c-3.43,4.19 -7.25,8.24 -11.43,12.09l41.7 -153.44 -4.31 45.88z"/>
   <path class="fil0" d="M518.29 384.49l-27.7 101.92 -7.97 -0.75 27.71 -101.93 7.96 0.75zm-129.17 475.33l-7.05 25.96c-3.58,8 -8.46,15.9 -14.56,23.34l25.95 -95.47 -4.35 46.18z"/>
   <path class="fil0" d="M526.25 385.24l-27.7 101.92 -7.96 -0.75 27.7 -101.92 7.96 0.75zm-144.18 500.54l7.05 -25.96 -0.07 0.78 -0.08 -0.02c-0.8,8.25 -3.13,16.78 -6.9,25.2z"/>
   <polygon class="fil0" points="534.26,385.99 506.56,487.92 498.55,487.16 526.25,385.24 "/>
   <polygon class="fil0" points="542.22,386.74 514.52,488.67 506.56,487.92 534.26,385.99 "/>
   <polygon class="fil0" points="550.23,387.49 522.52,489.42 514.52,488.67 542.22,386.74 "/>
   <polygon class="fil0" points="558.19,388.24 530.49,490.17 522.52,489.42 550.23,387.49 "/>
   <polygon class="fil0" points="566.16,388.99 538.46,490.92 530.49,490.17 558.19,388.24 "/>
   <polygon class="fil0" points="574.12,389.74 546.43,491.67 538.46,490.92 566.16,388.99 "/>
   <polygon class="fil0" points="582.08,390.49 554.38,492.42 546.43,491.67 574.12,389.74 "/>
   <polygon class="fil0" points="590.1,391.24 562.4,493.17 554.38,492.42 582.08,390.49 "/>
   <polygon class="fil0" points="598.06,392 570.35,493.93 562.4,493.17 590.1,391.24 "/>
   <polygon class="fil0" points="606.02,392.75 578.33,494.68 570.35,493.93 598.06,392 "/>
   <polygon class="fil0" points="614.04,393.5 586.32,495.43 578.33,494.68 606.02,392.75 "/>
   <polygon class="fil0" points="622,394.25 594.3,496.18 586.32,495.43 614.04,393.5 "/>
   <polygon class="fil0" points="629.99,395 602.28,496.93 594.3,496.18 622,394.25 "/>
   <polygon class="fil0" points="637.96,395.75 610.26,497.69 602.28,496.93 629.99,395 "/>
   <polygon class="fil0" points="645.91,396.5 618.2,498.43 610.26,497.69 637.96,395.75 "/>
   <polygon class="fil0" points="653.93,397.26 626.22,499.19 618.2,498.43 645.91,396.5 "/>
   <polygon class="fil0" points="661.87,398 634.17,499.94 626.22,499.19 653.93,397.26 "/>
   <polygon class="fil0" points="669.86,398.76 642.15,500.69 634.17,499.94 661.87,398 "/>
   <polygon class="fil0" points="677.83,399.51 650.13,501.44 642.15,500.69 669.86,398.76 "/>
   <polygon class="fil0" points="685.8,400.26 658.09,502.19 650.13,501.44 677.83,399.51 "/>
   <polygon class="fil0" points="693.79,401.01 666.08,502.94 658.09,502.19 685.8,400.26 "/>
   <polygon class="fil0" points="701.78,401.76 674.06,503.7 666.08,502.94 693.79,401.01 "/>
   <polygon class="fil0" points="709.75,402.51 682.04,504.45 674.06,503.7 701.78,401.76 "/>
   <polygon class="fil0" points="717.69,403.26 689.99,505.19 682.04,504.45 709.75,402.51 "/>
   <polygon class="fil0" points="725.7,404.02 697.99,505.95 689.99,505.19 717.69,403.26 "/>
   <polygon class="fil0" points="733.65,404.76 705.95,506.7 697.99,505.95 725.7,404.02 "/>
   <polygon class="fil0" points="741.64,405.52 713.94,507.45 705.95,506.7 733.65,404.76 "/>
   <polygon class="fil0" points="749.61,406.26 721.91,508.2 713.94,507.45 741.64,405.52 "/>
   <polygon class="fil0" points="757.57,407.02 729.87,508.95 721.91,508.2 749.61,406.26 "/>
   <path class="fil0" d="M765.57 407.76l-27.7 101.94 -8 -0.75 27.7 -101.94 8 0.75zm-135.16 497.32l-7.06 25.96c0.74,-8.49 3.14,-17.29 7.06,-25.96z"/>
   <path class="fil0" d="M773.56 408.52l-27.71 101.94 -7.98 -0.75 27.7 -101.94 7.99 0.76zm-128.71 473.54l-19.33 71.09c-2.15,-6.89 -2.84,-14.37 -2.16,-22.1l7.06 -25.96c3.57,-7.9 8.41,-15.69 14.43,-23.03z"/>
   <path class="fil0" d="M781.53 409.27l-27.71 101.94 -7.97 -0.75 27.71 -101.94 7.97 0.75zm-125.23 460.7l-25.64 94.34c-2.2,-3.49 -3.91,-7.23 -5.14,-11.16l19.33 -71.09c3.44,-4.2 7.26,-8.25 11.45,-12.09z"/>
   <path class="fil0" d="M789.48 410.02l-27.7 101.94 -7.96 -0.75 27.71 -101.94 7.94 0.75zm-122.63 451.31l-30.07 110.69c-0.98,-0.98 -1.91,-2.02 -2.8,-3.1 -1.21,-1.48 -2.31,-3.02 -3.32,-4.61l25.64 -94.34c1.66,-1.51 3.36,-2.99 5.13,-4.44 1.78,-1.46 3.59,-2.86 5.42,-4.2z"/>
   <path class="fil0" d="M797.49 410.77l-27.71 101.94 -8.01 -0.76 27.7 -101.94 8.02 0.76zm-120.69 444.02l-33.38 122.81c-2.38,-1.64 -4.6,-3.51 -6.65,-5.58l30.07 -110.69c3.26,-2.38 6.59,-4.56 9.96,-6.54z"/>
   <path class="fil0" d="M805.44 411.52l-27.71 101.94 -7.94 -0.75 27.71 -101.94 7.94 0.75zm-119.12 438.28l-35.83 131.85c-2.48,-1.17 -4.84,-2.51 -7.07,-4.05l33.38 -122.81c3.14,-1.84 6.32,-3.5 9.52,-4.99z"/>
   <path class="fil0" d="M813.4 412.27l-27.71 101.94 -7.96 -0.75 27.71 -101.94 7.96 0.75zm-117.89 433.78l-37.62 138.43c-2.56,-0.77 -5.04,-1.72 -7.4,-2.82l35.83 -131.85c3.06,-1.42 6.12,-2.67 9.19,-3.76z"/>
   <path class="fil0" d="M821.38 413.02l-27.7 101.94 -7.99 -0.75 27.71 -101.94 7.98 0.76zm-116.93 430.31l-38.83 142.92c-2.65,-0.44 -5.24,-1.02 -7.73,-1.78l37.62 -138.43c2.99,-1.06 5.98,-1.96 8.94,-2.71z"/>
   <path class="fil0" d="M821.54 442.5l-30.55 112.43 3.75 -39.86 -1.06 -0.1 27.7 -101.94 2.87 0.27 0.02 0.1 -2.73 29.11zm-108.44 399.09l-39.53 145.47c-2.7,-0.12 -5.36,-0.39 -7.95,-0.81l38.83 -142.92c2.9,-0.73 5.78,-1.31 8.64,-1.74z"/>
   <path class="fil0" d="M817.22 488.5l-30.57 112.5 4.34 -46.08 30.55 -112.43 -4.31 46.01zm-95.72 352.24l-39.74 146.24c-2.78,0.17 -5.5,0.2 -8.19,0.08l39.53 -145.47c2.83,-0.43 5.64,-0.71 8.41,-0.85z"/>
   <path class="fil0" d="M812.91 534.46l-30.59 112.62 4.34 -46.08 30.57 -112.5 -2.66 28.39 -1.65 17.57zm-83.22 306.33l-39.45 145.21c-2.86,0.48 -5.69,0.8 -8.48,0.98l39.74 -146.24c2.78,-0.13 5.51,-0.12 8.19,0.04z"/>
   <path class="fil0" d="M808.57 580.55l-30.6 112.61 4.34 -46.08 30.59 -112.62 -4.34 46.09zm-70.97 261.18l-38.69 142.39c-2.91,0.78 -5.8,1.4 -8.68,1.88l39.45 -145.21c2.7,0.17 5.34,0.48 7.91,0.95z"/>
   <path class="fil0" d="M804.24 626.63l-30.6 112.58 4.33 -46.06 30.6 -112.61 -4.33 46.08zm-58.98 217.02l-37.4 137.63c-2.98,1.1 -5.97,2.04 -8.94,2.83l38.69 -142.39c2.63,0.48 5.19,1.13 7.65,1.92z"/>
   <path class="fil0" d="M799.91 672.6l-30.6 112.6 4.33 -45.98 30.6 -112.58 -4.33 45.97zm-47.3 174.04l-35.53 130.74c-3.06,1.46 -6.15,2.77 -9.23,3.91l37.4 -137.63c2.55,0.83 5.01,1.82 7.36,2.98z"/>
   <path class="fil0" d="M795.59 718.56l-30.61 112.61 4.33 -45.97 30.6 -112.6 -4.32 45.96zm-35.96 132.32l-32.97 121.32c-3.16,1.9 -6.35,3.63 -9.57,5.17l35.53 -130.74c2.46,1.23 4.81,2.64 7.01,4.24z"/>
   <path class="fil0" d="M791.24 764.74l-54.52 200.67c-3.29,2.47 -6.65,4.74 -10.06,6.8l32.97 -121.32c1.12,0.81 2.21,1.68 3.26,2.6l2.1 -22.31 30.61 -112.61 -4.35 46.18z"/>
   <path class="fil0" d="M786.91 810.77l-39.58 145.64c-2.11,2 -4.31,3.96 -6.61,5.85 -1.32,1.08 -2.66,2.13 -4,3.14l54.52 -200.67 -4.33 46.04z"/>
   <path class="fil0" d="M782.56 856.93l-23.51 86.55c-3.48,4.48 -7.4,8.82 -11.73,12.94l39.58 -145.64 -4.34 46.16z"/>
   <path class="fil0" d="M759.06 943.48l23.51 -86.55 -3.8 40.35 -0.12 -0.02c-1.44,15.31 -8.2,31.54 -19.59,46.22z"/>
  </g>
 </g>
</svg>
