<?xml version="1.0" encoding="UTF-8"?>
<!DOCTYPE svg PUBLIC "-//W3C//DTD SVG 1.1//EN" "http://www.w3.org/Graphics/SVG/1.1/DTD/svg11.dtd">
<!-- Creator: CorelDRAW 2020 (64-Bit Evaluation Version) -->
<svg xmlns="http://www.w3.org/2000/svg" xml:space="preserve" width="1.1in" height="1.35in" version="1.1" style="shape-rendering:geometricPrecision; text-rendering:geometricPrecision; image-rendering:optimizeQuality; fill-rule:evenodd; clip-rule:evenodd"
viewBox="0 0 1100 1350"
 xmlns:xlink="http://www.w3.org/1999/xlink"
 xmlns:xodm="http://www.corel.com/coreldraw/odm/2003">
 <defs>
  <style type="text/css">
   <![CDATA[
    .fil0 {fill:url(#id0);fill-rule:nonzero}
   ]]>
  </style>
  <linearGradient id="id0" gradientUnits="userSpaceOnUse" x1="268.94" y1="595.63" x2="779.3" y2="734.36">
   <stop offset="0" style="stop-opacity:1; stop-color:black"/>
   <stop offset="1" style="stop-opacity:1; stop-color:#4E4E4E"/>
  </linearGradient>
 </defs>
 <g id="Layer_x0020_1">
  <metadata id="CorelCorpID_0Corel-Layer"/>
  <path class="fil0" d="M405.27 355.65l-9.74 103.61 -31.86 338.45c-23.67,-20.69 -67.12,-16.13 -101.46,12.05 -37.09,30.37 -49.38,76.66 -27.49,103.36 21.92,26.69 69.7,23.76 106.81,-6.63 22.5,-18.48 35.78,-42.79 37.93,-65.01l0.07 0.03 35.8 -380.38 369.9 34.85 -31.86 338.41c-23.66,-20.7 -67.14,-16.12 -101.45,12.05 -37.09,30.37 -49.38,76.66 -27.45,103.39 21.89,26.66 69.67,23.73 106.74,-6.65 22.49,-18.52 35.84,-42.75 37.93,-65.01l0.11 0.02 35.8 -380.39 9.71 -103.6 -409.49 -38.56z"/>
 </g>
</svg>
