<?xml version="1.0" encoding="UTF-8"?>
<!DOCTYPE svg PUBLIC "-//W3C//DTD SVG 1.1//EN" "http://www.w3.org/Graphics/SVG/1.1/DTD/svg11.dtd">
<!-- Creator: CorelDRAW 2020 (64-Bit Evaluation Version) -->
<svg xmlns="http://www.w3.org/2000/svg" xml:space="preserve" width="1.25in" height="1.35in" version="1.1" style="shape-rendering:geometricPrecision; text-rendering:geometricPrecision; image-rendering:optimizeQuality; fill-rule:evenodd; clip-rule:evenodd"
viewBox="0 0 1250 1350"
 xmlns:xlink="http://www.w3.org/1999/xlink"
 xmlns:xodm="http://www.corel.com/coreldraw/odm/2003">
 <defs>
  <style type="text/css">
   <![CDATA[
    .fil0 {fill:#FEFEFE;fill-rule:nonzero}
   ]]>
  </style>
 </defs>
 <g id="Layer_x0020_1">
  <metadata id="CorelCorpID_0Corel-Layer"/>
  <path class="fil0" d="M556.67 382.11l-29.47 99.8 -96.31 326.02c-19.25,-24.86 -62.77,-28.73 -101.89,-7.68 -42.23,22.68 -63.19,65.74 -46.85,96.15 16.39,30.41 63.83,36.72 106.09,14.02 25.63,-13.81 43.33,-35.11 49.72,-56.51l0.07 0.04 108.23 -366.41 356.31 105.29 -96.31 325.98c-19.24,-24.86 -62.79,-28.72 -101.88,-7.68 -42.24,22.68 -63.19,65.74 -46.81,96.19 16.36,30.37 63.8,36.68 106.03,13.98 25.63,-13.85 43.39,-35.06 49.72,-56.5l0.11 0.04 108.24 -366.41 29.44 -99.8 -394.45 -116.54z"/>
 </g>
</svg>
