<?xml version="1.0" encoding="UTF-8"?>
<!DOCTYPE svg PUBLIC "-//W3C//DTD SVG 1.1//EN" "http://www.w3.org/Graphics/SVG/1.1/DTD/svg11.dtd">
<!-- Creator: CorelDRAW 2020 (64-Bit Evaluation Version) -->
<svg xmlns="http://www.w3.org/2000/svg" xml:space="preserve" width="1.1in" height="1.35in" version="1.1" style="shape-rendering:geometricPrecision; text-rendering:geometricPrecision; image-rendering:optimizeQuality; fill-rule:evenodd; clip-rule:evenodd"
viewBox="0 0 1100 1350"
 xmlns:xlink="http://www.w3.org/1999/xlink"
 xmlns:xodm="http://www.corel.com/coreldraw/odm/2003">
 <defs>
  <style type="text/css">
   <![CDATA[
    .fil0 {fill:#CACAC9;fill-rule:nonzero}
   ]]>
  </style>
 </defs>
 <g id="Layer_x0020_1">
  <metadata id="CorelCorpID_0Corel-Layer"/>
  <g id="_2301555237792">
   <g>
    <path class="fil0" d="M560.21 139.66l-39.7 -0.19 -3.59 797.76c-50.7,-36.93 -136.4,-20.06 -199.65,42.05 -68.31,66.98 -84.52,161.31 -36.19,210.52 48.29,49.22 142.83,34.76 211.14,-32.27 41.48,-40.73 63.62,-91.43 63.89,-136.04l0.13 -0.02 3 -670.76c464.87,-21.02 190.49,501.31 190.49,501.31 430.47,-596.97 -189.52,-712.35 -189.52,-712.35z"/>
   </g>
   <path class="fil0" d="M256.52 1085.56l19.26 98.32c-10.18,-12.34 -16.83,-27.02 -20.11,-43.09l-0.43 -2.18c-3.05,-16.6 -2.56,-34.61 1.28,-53.05z"/>
   <path class="fil0" d="M263.43 1061.31l26.75 136.59c-3.19,-2.48 -6.23,-5.18 -9.1,-8.11 -1.87,-1.9 -3.63,-3.88 -5.31,-5.91l-19.26 -98.32c1.67,-8.03 3.98,-16.14 6.91,-24.24z"/>
   <path class="fil0" d="M271.41 1042.46l32.14 164.11c-4.69,-2.5 -9.15,-5.39 -13.36,-8.67l-26.75 -136.59c2.28,-6.3 4.94,-12.6 7.97,-18.85z"/>
   <path class="fil0" d="M279.96 1026.56l36.37 185.69c-4.41,-1.6 -8.68,-3.5 -12.78,-5.68l-32.14 -164.11c2.59,-5.34 5.43,-10.65 8.56,-15.91z"/>
   <path class="fil0" d="M288.91 1012.7l39.8 203.21c-4.24,-0.98 -8.37,-2.2 -12.38,-3.66l-36.37 -185.69c2.77,-4.67 5.76,-9.29 8.95,-13.86z"/>
   <path class="fil0" d="M298.16 1000.37l42.63 217.67c-4.11,-0.51 -8.14,-1.22 -12.08,-2.13l-39.8 -203.21c2.91,-4.16 6,-8.28 9.25,-12.32z"/>
   <path class="fil0" d="M307.65 989.27l44.98 229.66c-4.01,-0.12 -7.96,-0.41 -11.84,-0.89l-42.63 -217.67c3.02,-3.76 6.18,-7.46 9.49,-11.11z"/>
   <path class="fil0" d="M317.34 979.21l46.92 239.58c-3.92,0.21 -7.8,0.26 -11.63,0.14l-44.98 -229.66c3.09,-3.39 6.29,-6.72 9.62,-9.99l0.07 -0.07z"/>
   <path class="fil0" d="M327.22 970.05l48.51 247.68c-3.85,0.5 -7.68,0.85 -11.46,1.06l-46.92 -239.58c3.24,-3.17 6.52,-6.22 9.87,-9.16z"/>
   <path class="fil0" d="M337.25 961.72l49.77 254.13c-3.78,0.77 -7.55,1.4 -11.3,1.89l-48.51 -247.68c3.3,-2.89 6.65,-5.67 10.04,-8.33z"/>
   <path class="fil0" d="M347.44 954.15l50.73 259.03c-3.73,1.02 -7.44,1.91 -11.15,2.66l-49.77 -254.13c3.35,-2.63 6.75,-5.16 10.19,-7.56z"/>
   <path class="fil0" d="M357.76 947.33l51.41 262.48c-3.67,1.25 -7.34,2.38 -11,3.38l-50.73 -259.03c3.41,-2.39 6.85,-4.67 10.32,-6.83z"/>
   <path class="fil0" d="M368.23 941.2l51.81 264.53c-3.62,1.48 -7.24,2.83 -10.87,4.07l-51.41 -262.48c3.46,-2.16 6.96,-4.2 10.47,-6.12z"/>
   <path class="fil0" d="M378.83 935.78l51.94 265.2c-3.56,1.7 -7.15,3.29 -10.73,4.76l-51.81 -264.53c3.52,-1.93 7.05,-3.74 10.6,-5.43z"/>
   <path class="fil0" d="M389.56 931.03l51.8 264.51c-3.52,1.93 -7.06,3.74 -10.6,5.44l-51.94 -265.2c3.57,-1.7 7.15,-3.28 10.74,-4.75z"/>
   <path class="fil0" d="M400.43 926.96l51.4 262.45c-3.46,2.16 -6.95,4.2 -10.46,6.13l-51.8 -264.51c3.62,-1.47 7.25,-2.83 10.87,-4.07z"/>
   <path class="fil0" d="M411.44 923.59l50.72 258.98c-3.41,2.39 -6.85,4.67 -10.33,6.83l-51.4 -262.45c3.67,-1.25 7.34,-2.37 11,-3.37z"/>
   <path class="fil0" d="M422.59 920.96l49.76 254.05c-3.35,2.64 -6.75,5.16 -10.19,7.57l-50.72 -258.98c3.73,-1.01 7.45,-1.89 11.15,-2.63z"/>
   <path class="fil0" d="M433.89 919.1l48.48 247.57c-3.3,2.9 -6.64,5.68 -10.03,8.34l-49.76 -254.05c3.79,-0.76 7.56,-1.38 11.3,-1.86z"/>
   <path class="fil0" d="M445.35 918.05l46.89 239.45 -0.02 0.02c-3.22,3.17 -6.51,6.21 -9.85,9.15l-48.48 -247.57c3.85,-0.5 7.68,-0.85 11.46,-1.05z"/>
   <path class="fil0" d="M456.99 917.94l44.94 229.48c-3.1,3.42 -6.33,6.78 -9.69,10.08l-46.89 -239.45c3.93,-0.2 7.81,-0.24 11.64,-0.11z"/>
   <path class="fil0" d="M468.84 918.87l42.58 217.43c-3.02,3.77 -6.18,7.48 -9.49,11.13l-44.94 -229.48c4.01,0.13 7.96,0.44 11.85,0.93z"/>
   <path class="fil0" d="M480.93 921.03l39.74 202.91c-2.91,4.18 -5.99,8.3 -9.24,12.36l-42.58 -217.43c4.11,0.52 8.14,1.24 12.09,2.16z"/>
   <path class="fil0" d="M493.31 924.72l36.3 185.31c-2.77,4.69 -5.75,9.33 -8.94,13.91l-39.74 -202.91c4.24,0.99 8.38,2.22 12.39,3.69z"/>
   <path class="fil0" d="M506.1 930.45l32.05 163.63c-2.58,5.35 -5.43,10.68 -8.54,15.95l-36.3 -185.31c4.42,1.62 8.69,3.53 12.79,5.73z"/>
   <path class="fil0" d="M516.97 926.38l29.13 148.75c-2.27,6.33 -4.92,12.66 -7.95,18.95l-32.05 -163.63c3.75,2.02 7.37,4.28 10.81,6.78l0.05 -10.85z"/>
   <path class="fil0" d="M517.23 868.15l35.75 182.54c-1.65,8.09 -3.95,16.27 -6.88,24.44l-29.13 -148.75 0.26 -58.23z"/>
   <path class="fil0" d="M517.49 809.93l38.81 198.15 -0.06 13.38 -0.13 0.02c-0.06,9.52 -1.11,19.31 -3.13,29.22l-35.75 -182.54 0.26 -58.23z"/>
   <polygon class="fil0" points="517.76,751.71 556.56,949.86 556.3,1008.07 517.49,809.93 "/>
   <polygon class="fil0" points="518.02,693.49 556.82,891.63 556.56,949.86 517.76,751.71 "/>
   <polygon class="fil0" points="518.28,635.26 557.08,833.39 556.82,891.63 518.02,693.49 "/>
   <polygon class="fil0" points="518.54,577.05 557.34,775.18 557.08,833.39 518.28,635.26 "/>
   <polygon class="fil0" points="518.8,518.82 557.61,716.94 557.34,775.18 518.54,577.05 "/>
   <polygon class="fil0" points="519.07,460.59 557.87,658.7 557.61,716.94 518.8,518.82 "/>
   <polygon class="fil0" points="519.33,402.38 558.13,600.48 557.87,658.7 519.07,460.59 "/>
   <polygon class="fil0" points="519.59,344.15 558.39,542.25 558.13,600.48 519.33,402.38 "/>
   <polygon class="fil0" points="519.85,285.92 558.65,484.01 558.39,542.25 519.59,344.15 "/>
   <polygon class="fil0" points="520.12,227.72 558.91,425.8 558.65,484.01 519.85,285.92 "/>
   <polygon class="fil0" points="520.38,169.48 559.17,367.56 558.91,425.8 520.12,227.72 "/>
   <path class="fil0" d="M526.17 139.5l41.31 210.97c-2.76,0.09 -5.43,0.11 -8.24,0.23l-0.08 16.86 -38.79 -198.07 0.14 -30.02 5.66 0.03z"/>
   <path class="fil0" d="M537.85 139.56l41.24 210.59c-3.78,0.05 -7.72,0.2 -11.6,0.32l-41.31 -210.97 11.67 0.06z"/>
   <path class="fil0" d="M549.52 139.61l41.24 210.59c-3.87,-0.04 -7.72,-0.08 -11.67,-0.06l-41.24 -210.59 11.68 0.06z"/>
   <path class="fil0" d="M561.24 139.86l41.22 210.51c-3.81,-0.12 -7.77,-0.14 -11.7,-0.17l-41.24 -210.59 10.69 0.05 1.03 0.2z"/>
   <path class="fil0" d="M573.43 142.59l40.81 208.36c-3.88,-0.22 -7.77,-0.43 -11.78,-0.57l-41.22 -210.51c1.79,0.36 5.97,1.23 12.19,2.72z"/>
   <path class="fil0" d="M585.71 145.7l40.36 206.08c-3.88,-0.33 -7.82,-0.6 -11.83,-0.84l-40.81 -208.36c3.51,0.84 7.58,1.86 12.28,3.12z"/>
   <path class="fil0" d="M598.05 149.16l39.89 203.7c-3.85,-0.44 -7.89,-0.74 -11.87,-1.07l-40.36 -206.08c3.76,1.01 7.91,2.16 12.34,3.46z"/>
   <path class="fil0" d="M610.46 152.94l39.48 201.56c-3.95,-0.58 -7.89,-1.17 -11.99,-1.64l-39.89 -203.7c3.9,1.14 8.05,2.41 12.41,3.78z"/>
   <path class="fil0" d="M622.92 157l39.07 199.5c-3.94,-0.72 -7.95,-1.39 -12.06,-1.99l-39.48 -201.56c4,1.26 8.13,2.59 12.46,4.06zm133.48 681.56l0.61 3.1c-2.45,3.46 -4.75,6.86 -7.28,10.35 0,0 2.53,-4.82 6.67,-13.45z"/>
   <path class="fil0" d="M635.45 161.41l38.68 197.49c-3.94,-0.88 -8.02,-1.66 -12.14,-2.41l-39.07 -199.5c4.03,1.37 8.24,2.86 12.53,4.42zm129.15 659.44l1.53 7.82c-2.96,4.29 -6.08,8.65 -9.12,12.98l-0.61 -3.1c2.29,-4.78 5.07,-10.74 8.2,-17.7z"/>
   <path class="fil0" d="M648.04 166.13l38.33 195.73c-3.96,-1.07 -8.08,-2.02 -12.24,-2.95l-38.68 -197.49c4.09,1.49 8.29,3.05 12.59,4.71zm124.61 636.26l2.54 12.93c-2.98,4.43 -5.98,8.88 -9.05,13.36l-1.53 -7.82c2.5,-5.55 5.19,-11.71 8.04,-18.47z"/>
   <path class="fil0" d="M660.69 171.18l38.07 194.38c-4.04,-1.3 -8.13,-2.56 -12.39,-3.7l-38.33 -195.73c4.15,1.6 8.35,3.28 12.65,5.06zm119.84 611.92l3.66 18.67c-2.92,4.47 -5.98,9.02 -9.01,13.55l-2.54 -12.93c2.53,-6 5.19,-12.45 7.89,-19.28z"/>
   <path class="fil0" d="M673.43 176.63l37.87 193.36c-4.06,-1.56 -8.22,-3.04 -12.54,-4.43l-38.07 -194.38c4.17,1.73 8.44,3.56 12.74,5.45zm114.82 586.3l4.87 24.86c-2.93,4.64 -5.87,9.28 -8.93,13.98l-3.66 -18.67c2.54,-6.41 5.12,-13.12 7.72,-20.17z"/>
   <path class="fil0" d="M686.23 182.46l37.77 192.85c-4.09,-1.87 -8.33,-3.64 -12.7,-5.32l-37.87 -193.36c4.22,1.85 8.49,3.8 12.8,5.83zm109.54 559.3l6.24 31.85c-2.85,4.67 -5.9,9.43 -8.89,14.18l-4.87 -24.86c2.51,-6.8 5.03,-13.85 7.52,-21.17z"/>
   <path class="fil0" d="M699.12 188.71l37.81 193.04c-4.13,-2.26 -8.46,-4.39 -12.93,-6.43l-37.77 -192.85c4.26,2 8.56,4.08 12.89,6.25zm103.92 530.62l7.74 39.52c-2.89,4.9 -5.74,9.8 -8.77,14.77l-6.24 -31.85c2.46,-7.26 4.9,-14.76 7.27,-22.44z"/>
   <path class="fil0" d="M712.09 195.41l38.04 194.22c-4.19,-2.76 -8.61,-5.38 -13.2,-7.89l-37.81 -193.04c4.31,2.16 8.63,4.37 12.98,6.7zm97.91 499.94l9.5 48.52c-2.79,4.93 -5.78,9.96 -8.73,14.97l-7.74 -39.52c2.41,-7.81 4.74,-15.81 6.96,-23.97z"/>
   <path class="fil0" d="M725.19 202.7l38.57 196.96c-4.31,-3.48 -8.81,-6.85 -13.63,-10.02l-38.04 -194.22c4.35,2.33 8.72,4.78 13.09,7.28zm91.39 466.63l11.53 58.86c-2.81,5.2 -5.61,10.4 -8.59,15.69l-9.5 -48.52c2.33,-8.52 4.53,-17.21 6.57,-26.03z"/>
   <path class="fil0" d="M738.39 210.56l39.52 201.81c-4.37,-4.44 -9.13,-8.66 -14.16,-12.71l-38.57 -196.96c4.41,2.53 8.81,5.15 13.21,7.87zm84.17 429.81l14.04 71.67c-2.74,5.34 -5.57,10.72 -8.5,16.15l-11.53 -58.86c2.21,-9.54 4.24,-19.2 5.99,-28.96z"/>
   <path class="fil0" d="M751.73 219.07l41.35 211.18c-4.56,-6.24 -9.59,-12.21 -15.17,-17.88l-39.52 -201.81c4.46,2.74 8.9,5.57 13.33,8.51zm75.83 387.23l17.44 89.08c-2.66,5.48 -5.54,11.07 -8.4,16.65l-14.04 -71.67c2.03,-11.28 3.73,-22.67 5,-34.06z"/>
   <path class="fil0" d="M765.2 228.33l45.48 232.21c-4.82,-10.63 -10.63,-20.78 -17.59,-30.29l-41.35 -211.18c4.51,2.99 9.01,6.06 13.47,9.26zm64.92 331.47l23.1 117.96c-2.64,5.83 -5.33,11.68 -8.21,17.63l-17.44 -89.08c1.73,-15.56 2.65,-31.13 2.56,-46.5z"/>
   <path class="fil0" d="M778.88 238.6l82.39 420.66c-2.56,6.11 -5.21,12.26 -8.04,18.5l-23.1 -117.96c-0.21,-35.16 -5.8,-69.19 -19.44,-99.26l-45.48 -232.21c4.6,3.3 9.16,6.74 13.68,10.27z"/>
   <path class="fil0" d="M792.77 249.97l76.33 389.75c-2.46,6.44 -5.07,12.95 -7.83,19.54l-82.39 -420.66c4.69,3.66 9.32,7.46 13.89,11.37z"/>
   <path class="fil0" d="M806.98 262.71l69.72 355.98c-2.35,6.91 -4.89,13.93 -7.6,21.03l-76.33 -389.75c4.81,4.11 9.57,8.33 14.22,12.74z"/>
   <path class="fil0" d="M821.46 277.37l62.41 318.67c-2.17,7.44 -4.57,14.99 -7.17,22.66l-69.72 -355.98c4.95,4.7 9.76,9.62 14.48,14.66z"/>
   <path class="fil0" d="M836.56 294.62l54.05 275.99c-1.96,8.31 -4.22,16.8 -6.74,25.42l-62.41 -318.67c5.2,5.55 10.25,11.29 15.1,17.26z"/>
   <path class="fil0" d="M852.31 315.73l44.21 225.75c-1.57,9.49 -3.57,19.21 -5.91,29.13l-54.05 -275.99c5.5,6.77 10.77,13.79 15.74,21.11z"/>
   <path class="fil0" d="M869.78 345.08l31.17 159.14c-0.83,12.04 -2.3,24.46 -4.42,37.26l-44.21 -225.75c6.33,9.31 12.15,19.1 17.47,29.35z"/>
   <path class="fil0" d="M896.29 421.18l0.35 1.8c4.67,24.95 6.31,52 4.3,81.25l-31.17 -159.14c11.9,22.91 21.11,48.18 26.51,76.1z"/>
  </g>
 </g>
</svg>
