<?xml version="1.0" encoding="UTF-8"?>
<!DOCTYPE svg PUBLIC "-//W3C//DTD SVG 1.1//EN" "http://www.w3.org/Graphics/SVG/1.1/DTD/svg11.dtd">
<!-- Creator: CorelDRAW 2020 (64-Bit Evaluation Version) -->
<svg xmlns="http://www.w3.org/2000/svg" xml:space="preserve" width="1.1in" height="1.35in" version="1.1" style="shape-rendering:geometricPrecision; text-rendering:geometricPrecision; image-rendering:optimizeQuality; fill-rule:evenodd; clip-rule:evenodd"
viewBox="0 0 1100 1350"
 xmlns:xlink="http://www.w3.org/1999/xlink"
 xmlns:xodm="http://www.corel.com/coreldraw/odm/2003">
 <defs>
  <style type="text/css">
   <![CDATA[
    .fil0 {fill:#CACAC9;fill-rule:nonzero}
   ]]>
  </style>
 </defs>
 <g id="Layer_x0020_1">
  <metadata id="CorelCorpID_0Corel-Layer"/>
  <g id="_2301555230640">
   <g>
    <path class="fil0" d="M841.73 858.61c10.47,53.46 -40.58,328.9 -341.98,387.93l-225.31 -1150.46 53.39 -10.46 150.94 780.7c0,0 66.02,-117.92 184.28,-141.07 118.31,-23.17 168.22,79.96 178.68,133.37zm-134.25 -3.17l0 0c-47.71,-32.05 -139.13,-49.15 -212.26,112.82l40.53 206.94c0,0 53.55,11.5 144.56,-73.64 91.07,-85.15 74.9,-214.07 27.18,-246.12z"/>
   </g>
   <path class="fil0" d="M480.78 862.93l18.8 95.98c-1.46,3.06 -2.91,6.16 -4.36,9.36l-27.85 -142.21 3.49 -0.68 7.92 40.93c0,0 0.68,-1.21 2,-3.39zm61.26 312.8l3.81 19.47 -5.96 1.17 -4.14 -21.15c0,0 2.14,0.46 6.29,0.52z"/>
   <path class="fil0" d="M485.55 855.42l18.48 94.38c-1.49,2.97 -2.98,6.01 -4.46,9.11l-18.8 -95.98c1.13,-1.85 2.72,-4.38 4.78,-7.51zm62.69 320.1l3.62 18.5 -6.02 1.18 -3.81 -19.47c1.72,0.02 3.8,-0.03 6.2,-0.2z"/>
   <path class="fil0" d="M490.36 848.35l18.17 92.76c-1.5,2.82 -3,5.73 -4.49,8.69l-18.48 -94.38c1.39,-2.11 3,-4.48 4.81,-7.07zm63.94 326.51l3.52 17.98 -5.97 1.17 -3.62 -18.5c1.83,-0.14 3.85,-0.35 6.07,-0.66z"/>
   <path class="fil0" d="M495.27 841.52l17.86 91.19c-1.54,2.73 -3.07,5.54 -4.6,8.41l-18.17 -92.76c1.5,-2.14 3.13,-4.42 4.91,-6.83zm65.08 332.3l3.5 17.85 -6.02 1.18 -3.52 -17.98c1.87,-0.27 3.9,-0.61 6.04,-1.04z"/>
   <path class="fil0" d="M500.23 834.94l17.57 89.72c-1.56,2.62 -3.12,5.29 -4.67,8.04l-17.86 -91.19c1.55,-2.1 3.2,-4.3 4.96,-6.57zm66.1 337.52l3.53 18.03 -6.02 1.18 -3.5 -17.85c1.89,-0.38 3.88,-0.83 5.98,-1.36z"/>
   <path class="fil0" d="M505.24 828.61l17.3 88.34c-1.58,2.5 -3.16,5.07 -4.74,7.71l-17.57 -89.72c1.58,-2.05 3.25,-4.17 5.01,-6.33zm67.02 342.2l3.62 18.5 -6.02 1.18 -3.53 -18.03c1.89,-0.48 3.87,-1.02 5.93,-1.65z"/>
   <path class="fil0" d="M510.29 822.49l17.06 87.09c-1.61,2.38 -3.2,4.85 -4.81,7.37l-17.3 -88.34c1.61,-2 3.29,-4.04 5.05,-6.12zm67.85 346.43l3.76 19.22 -6.02 1.18 -3.62 -18.5c1.89,-0.57 3.85,-1.2 5.88,-1.9z"/>
   <path class="fil0" d="M515.39 816.66l16.83 85.93c-1.63,2.27 -3.26,4.58 -4.88,6.99l-17.06 -87.09c1.61,-1.91 3.28,-3.84 5.01,-5.81l0.09 -0.02zm68.57 350.13l3.95 20.17 -6.02 1.18 -3.76 -19.22c1.89,-0.65 3.82,-1.35 5.83,-2.13z"/>
   <path class="fil0" d="M521.41 815.48l15.75 80.43c-1.65,2.15 -3.3,4.39 -4.94,6.68l-16.83 -85.93 6.02 -1.18zm68.34 348.94l4.18 21.35 -6.02 1.18 -3.95 -20.17c1.87,-0.73 3.81,-1.52 5.78,-2.36z"/>
   <path class="fil0" d="M527.37 814.31l14.76 75.33c-1.66,2.02 -3.31,4.11 -4.96,6.27l-15.75 -80.43 5.96 -1.17zm68.07 347.57l4.45 22.73 -5.96 1.17 -4.18 -21.35c1.85,-0.79 3.75,-1.64 5.69,-2.54z"/>
   <path class="fil0" d="M533.39 813.13l13.81 70.54c-1.7,1.93 -3.39,3.91 -5.08,5.98l-14.76 -75.33 6.02 -1.18zm67.76 345.98l4.76 24.31 -6.02 1.18 -4.45 -22.73c1.87,-0.87 3.77,-1.78 5.71,-2.76z"/>
   <path class="fil0" d="M539.4 811.96l12.94 66.05c-1.72,1.81 -3.43,3.72 -5.14,5.66l-13.81 -70.54 6.02 -1.18zm67.41 344.22l5.11 26.07 -6.02 1.18 -4.76 -24.31c1.86,-0.93 3.74,-1.91 5.67,-2.94z"/>
   <path class="fil0" d="M545.42 810.78l12.13 61.94c-1.74,1.7 -3.48,3.45 -5.21,5.29l-12.94 -66.05 6.02 -1.18zm67.04 342.28l5.49 28.02 -6.02 1.18 -5.11 -26.07c1.85,-0.99 3.72,-2.04 5.64,-3.13z"/>
   <path class="fil0" d="M551.43 809.6l11.39 58.15c-1.76,1.59 -3.52,3.25 -5.27,4.97l-12.13 -61.94 6.02 -1.18zm66.62 340.16l5.91 30.14 -6.02 1.18 -5.49 -28.02c1.83,-1.05 3.7,-2.15 5.6,-3.3z"/>
   <path class="fil0" d="M557.4 808.43l10.72 54.73c-1.76,1.46 -3.53,2.99 -5.29,4.59l-11.39 -58.15 5.96 -1.17zm66.17 337.9l6.35 32.39 -5.96 1.17 -5.91 -30.14c1.81,-1.1 3.65,-2.23 5.52,-3.42z"/>
   <path class="fil0" d="M563.41 807.25l10.11 51.62c-1.8,1.37 -3.6,2.79 -5.41,4.29l-10.72 -54.73 6.02 -1.18zm65.7 335.47l6.82 34.82 -6.02 1.18 -6.35 -32.39c1.82,-1.16 3.67,-2.36 5.54,-3.61z"/>
   <path class="fil0" d="M569.43 806.07l9.57 48.85c-1.82,1.25 -3.64,2.57 -5.47,3.95l-10.11 -51.62 6.02 -1.18zm65.2 332.89l7.33 37.41 -6.02 1.18 -6.82 -34.82c1.81,-1.21 3.65,-2.46 5.51,-3.76z"/>
   <path class="fil0" d="M575.44 804.9l9.09 46.42c-1.84,1.14 -3.69,2.34 -5.54,3.61l-9.57 -48.85 6.02 -1.18zm64.66 330.16l7.86 40.13 -6.02 1.18 -7.33 -37.41c1.81,-1.26 3.63,-2.56 5.48,-3.9z"/>
   <path class="fil0" d="M581.46 803.72l8.68 44.33c-1.87,1.02 -3.73,2.11 -5.61,3.27l-9.09 -46.42 6.02 -1.18zm64.1 327.29l8.43 43.01 -6.02 1.18 -7.86 -40.13c1.8,-1.31 3.61,-2.66 5.45,-4.06z"/>
   <path class="fil0" d="M587.48 802.54l8.34 42.57c-1.89,0.91 -3.78,1.89 -5.67,2.93l-8.68 -44.33 6.02 -1.18zm63.51 324.28l9.01 46.02 -6.02 1.18 -8.43 -43.01c1.8,-1.35 3.6,-2.74 5.43,-4.19z"/>
   <path class="fil0" d="M593.49 801.36l8.06 41.17c-1.91,0.8 -3.82,1.66 -5.74,2.58l-8.34 -42.57 6.02 -1.18zm62.89 321.13l9.63 49.16 -6.02 1.18 -9.01 -46.02c1.78,-1.4 3.58,-2.84 5.4,-4.32z"/>
   <path class="fil0" d="M599.46 800.19l7.85 40.11c-1.91,0.67 -3.83,1.43 -5.76,2.23l-8.06 -41.17 5.97 -1.17zm62.26 317.89l10.26 52.41 -5.96 1.17 -9.63 -49.16c1.76,-1.43 3.54,-2.91 5.33,-4.42z"/>
   <path class="fil0" d="M605.48 799.02l7.72 39.4c-1.95,0.57 -3.91,1.18 -5.88,1.88l-7.85 -40.11 6.02 -1.18zm61.59 314.49l10.93 55.81 -6.02 1.18 -10.26 -52.41c1.77,-1.49 3.55,-3.01 5.35,-4.57z"/>
   <path class="fil0" d="M611.49 797.84l7.64 39.04c-1.97,0.45 -3.95,0.96 -5.94,1.54l-7.72 -39.4 6.02 -1.18zm60.9 310.97l11.4 58.22 -2.03 1.55 -3.77 0.74 -10.93 -55.81c1.76,-1.53 3.54,-3.09 5.33,-4.7z"/>
   <path class="fil0" d="M617.51 796.66l7.65 39.02c-2,0.33 -4,0.74 -6.02,1.19l-7.64 -39.04 6.02 -1.18zm60.19 307.32l11.53 58.89c-1.79,1.4 -3.61,2.79 -5.43,4.16l-11.4 -58.22c1.75,-1.57 3.52,-3.19 5.3,-4.83z"/>
   <path class="fil0" d="M623.52 795.48l7.72 39.39c-2.02,0.21 -4.05,0.48 -6.09,0.81l-7.65 -39.02 6.02 -1.18zm59.44 303.53l11.66 59.54c-1.79,1.44 -3.57,2.89 -5.4,4.31l-11.53 -58.89 2.61 -2.41c0.9,-0.85 1.78,-1.7 2.66,-2.56z"/>
   <path class="fil0" d="M629.54 794.3l7.86 40.11c-2.04,0.09 -4.09,0.24 -6.16,0.45l-7.72 -39.39 6.02 -1.18zm58.66 299.5l11.81 60.34c-1.77,1.48 -3.57,2.95 -5.38,4.41l-11.66 -59.54c1.78,-1.72 3.53,-3.46 5.23,-5.21z"/>
   <path class="fil0" d="M635.5 793.13l8.07 41.2c-2.04,-0.03 -4.1,-0.01 -6.17,0.08l-7.86 -40.11 5.96 -1.17zm57.81 295.17l12 61.3c-1.75,1.52 -3.51,3.04 -5.3,4.54l-11.81 -60.34c1.74,-1.81 3.45,-3.65 5.11,-5.49z"/>
   <path class="fil0" d="M641.52 791.96l8.36 42.68c-2.08,-0.16 -4.19,-0.26 -6.31,-0.3l-8.07 -41.2 6.02 -1.18zm56.89 290.48l12.23 62.44c-1.76,1.58 -3.52,3.16 -5.32,4.72l-12 -61.3c1.74,-1.94 3.44,-3.9 5.09,-5.87z"/>
   <path class="fil0" d="M647.54 790.78l8.72 44.55c-2.11,-0.3 -4.24,-0.52 -6.39,-0.69l-8.36 -42.68 6.02 -1.18zm55.9 285.42l12.5 63.83c-1.74,1.63 -3.52,3.24 -5.3,4.85l-12.23 -62.44c1.73,-2.06 3.41,-4.14 5.03,-6.23z"/>
   <path class="fil0" d="M653.56 789.6l9.17 46.83c-2.13,-0.43 -4.28,-0.79 -6.46,-1.1l-8.72 -44.55 6.02 -1.18zm54.82 279.94l12.82 65.49c-1.73,1.68 -3.48,3.35 -5.26,5.01l-12.5 -63.83c1.7,-2.2 3.34,-4.43 4.94,-6.67z"/>
   <path class="fil0" d="M659.57 788.42l9.7 49.52c-2.15,-0.57 -4.33,-1.07 -6.54,-1.52l-9.17 -46.83 6.02 -1.18zm53.66 274l13.2 67.41c-1.73,1.74 -3.46,3.47 -5.23,5.19l-12.82 -65.49c1.68,-2.36 3.3,-4.73 4.85,-7.12z"/>
   <path class="fil0" d="M665.58 787.24l10.31 52.67c-2.17,-0.72 -4.38,-1.37 -6.63,-1.96l-9.7 -49.52 6.01 -1.18zm52.4 267.53l13.65 69.72c-1.71,1.79 -3.44,3.56 -5.2,5.33l-13.2 -67.41c1.65,-2.53 3.24,-5.08 4.75,-7.64z"/>
   <path class="fil0" d="M671.55 786.07l11.01 56.24c-2.18,-0.86 -4.4,-1.66 -6.67,-2.41l-10.31 -52.67 5.97 -1.17zm51.01 260.48l14.2 72.51c-1.68,1.82 -3.4,3.63 -5.13,5.43l-13.65 -69.72c1.6,-2.72 3.13,-5.47 4.58,-8.22z"/>
   <path class="fil0" d="M677.57 784.9l11.82 60.35c-2.22,-1.03 -4.49,-2.02 -6.82,-2.93l-11.01 -56.24 6.02 -1.18zm49.48 252.65l14.85 75.81c-1.69,1.91 -3.39,3.81 -5.13,5.7l-14.2 -72.51c1.58,-2.99 3.07,-5.99 4.48,-9z"/>
   <path class="fil0" d="M683.58 783.72l12.73 65c-2.24,-1.21 -4.55,-2.37 -6.93,-3.47l-11.82 -60.35 6.02 -1.18zm47.78 243.94l15.63 79.83c-1.68,1.96 -3.37,3.93 -5.09,5.88l-14.85 -75.81c1.54,-3.29 2.98,-6.58 4.31,-9.89z"/>
   <path class="fil0" d="M689.6 782.54l13.76 70.25c-2.26,-1.4 -4.61,-2.77 -7.04,-4.07l-12.73 -65 6.02 -1.18zm45.84 234.09l16.61 84.81c-1.66,2.02 -3.35,4.04 -5.06,6.05l-15.63 -79.83c1.48,-3.67 2.84,-7.35 4.08,-11.03z"/>
   <path class="fil0" d="M695.61 781.36l14.95 76.35c-1.02,-0.8 -2.04,-1.56 -3.08,-2.26l0 0c-1.34,-0.9 -2.72,-1.78 -4.13,-2.66l-13.76 -70.25 6.02 -1.18zm43.62 222.75l17.84 91.07c-1.64,2.09 -3.32,4.17 -5.02,6.25l-16.61 -84.81c1.41,-4.17 2.68,-8.35 3.8,-12.52z"/>
   <path class="fil0" d="M701.63 780.19l16.58 84.66c-2.43,-2.68 -4.98,-5.05 -7.64,-7.13l-14.95 -76.35 6.02 -1.18zm40.96 209.16l19.47 99.4c-1.63,2.16 -3.3,4.3 -4.98,6.45l-17.84 -91.07c1.32,-4.94 2.43,-9.87 3.35,-14.77z"/>
   <path class="fil0" d="M707.65 779l19.02 97.11c-2.61,-4.15 -5.43,-7.93 -8.46,-11.26l-16.58 -84.66 6.02 -1.18zm37.54 191.72l21.8 111.33c-1.61,2.24 -3.26,4.47 -4.94,6.69l-19.47 -99.4c1.18,-6.27 2.04,-12.48 2.6,-18.62z"/>
   <path class="fil0" d="M713.61 777.84l23.58 120.4c-2.9,-8.19 -6.44,-15.63 -10.52,-22.13l-19.02 -97.11 5.96 -1.17zm32.06 163.72l26.17 133.63c-1.59,2.29 -3.19,4.58 -4.85,6.87l-21.8 -111.33c0.92,-10 1.06,-19.78 0.48,-29.17z"/>
   <path class="fil0" d="M719.63 776.66l57.06 291.36c-1.58,2.39 -3.2,4.78 -4.84,7.16l-26.17 -133.63c-0.97,-15.78 -3.94,-30.46 -8.48,-43.31l-23.58 -120.4 6.02 -1.18z"/>
   <path class="fil0" d="M725.65 775.48l55.84 285.11c-1.57,2.48 -3.16,4.95 -4.8,7.43l-57.06 -291.36 6.02 -1.18z"/>
   <path class="fil0" d="M731.66 774.3l54.56 278.61c-1.54,2.56 -3.13,5.12 -4.74,7.69l-55.84 -285.11 6.02 -1.18z"/>
   <polygon class="fil0" points="786.22,1052.91 731.66,774.3 732.99,774.04 787.27,1051.19 "/>
   <path class="fil0" d="M280.44 94.9l225.3 1150.39c-2,0.42 -3.97,0.86 -5.99,1.26l-225.31 -1150.46 6 -1.18z"/>
   <path class="fil0" d="M286.46 93.72l225.28 1150.31c-1.98,0.44 -4,0.83 -6,1.26l-225.3 -1150.39 6.02 -1.18z"/>
   <path class="fil0" d="M292.47 92.54l225.25 1150.12c-1.99,0.46 -3.97,0.92 -5.98,1.37l-225.28 -1150.31 6.02 -1.18z"/>
   <path class="fil0" d="M298.49 91.36l225.2 1149.88c-1.98,0.48 -3.97,0.95 -5.97,1.42l-225.25 -1150.12 6.02 -1.18z"/>
   <path class="fil0" d="M304.5 90.19l225.14 1149.57c-1.97,0.51 -3.96,1 -5.95,1.49l-225.2 -1149.88 6.02 -1.18z"/>
   <path class="fil0" d="M310.47 89.02l225.06 1149.17c-1.95,0.53 -3.91,1.06 -5.89,1.57l-225.14 -1149.57 5.96 -1.17z"/>
   <path class="fil0" d="M316.48 87.84l224.98 1148.74c-1.95,0.56 -3.95,1.07 -5.93,1.61l-225.06 -1149.17 6.02 -1.18z"/>
   <path class="fil0" d="M322.5 86.66l224.86 1148.17c-1.96,0.58 -3.91,1.19 -5.9,1.75l-224.98 -1148.74 6.02 -1.18z"/>
   <path class="fil0" d="M480.78 862.93l18.8 95.98c-1.46,3.06 -2.91,6.16 -4.36,9.36l40.53 206.94c0,0 2.14,0.46 6.29,0.52l11.23 57.35c-1.94,0.61 -3.94,1.17 -5.91,1.75l-224.86 -1148.17 5.33 -1.04 150.94 780.7c0,0 0.68,-1.21 2,-3.39z"/>
   <path class="fil0" d="M485.55 855.42l18.48 94.38c-1.49,2.97 -2.98,6.01 -4.46,9.11l-18.8 -95.98c1.13,-1.85 2.72,-4.38 4.78,-7.51zm62.69 320.1l10.9 55.64c-1.96,0.64 -3.89,1.3 -5.87,1.92l-11.23 -57.35c1.72,0.02 3.8,-0.03 6.2,-0.2z"/>
   <path class="fil0" d="M490.36 848.35l18.17 92.76c-1.5,2.82 -3,5.73 -4.49,8.69l-18.48 -94.38c1.39,-2.11 3,-4.48 4.81,-7.07zm63.94 326.51l10.65 54.4c-1.92,0.65 -3.88,1.27 -5.82,1.9l-10.9 -55.64c1.83,-0.14 3.85,-0.35 6.07,-0.66z"/>
   <path class="fil0" d="M495.27 841.52l17.86 91.19c-1.54,2.73 -3.07,5.54 -4.6,8.41l-18.17 -92.76c1.5,-2.14 3.13,-4.42 4.91,-6.83zm65.08 332.3l10.45 53.38c-1.94,0.69 -3.87,1.39 -5.84,2.06l-10.65 -54.4c1.87,-0.27 3.9,-0.61 6.04,-1.04z"/>
   <path class="fil0" d="M500.23 834.94l17.57 89.72c-1.56,2.62 -3.12,5.29 -4.67,8.04l-17.86 -91.19c1.55,-2.1 3.2,-4.3 4.96,-6.57zm66.1 337.52l10.31 52.65c-1.93,0.72 -3.89,1.4 -5.84,2.09l-10.45 -53.38c1.89,-0.38 3.88,-0.83 5.98,-1.36z"/>
   <path class="fil0" d="M505.24 828.61l17.3 88.34c-1.58,2.5 -3.16,5.07 -4.74,7.71l-17.57 -89.72c1.58,-2.05 3.25,-4.17 5.01,-6.33zm67.02 342.2l10.2 52.07c-1.93,0.74 -3.85,1.5 -5.81,2.22l-10.31 -52.65c1.89,-0.48 3.87,-1.02 5.93,-1.65z"/>
   <path class="fil0" d="M510.29 822.49l17.06 87.09c-1.61,2.38 -3.2,4.85 -4.81,7.37l-17.3 -88.34c1.61,-2 3.29,-4.04 5.05,-6.12zm67.85 346.43l10.13 51.71c-1.92,0.77 -3.87,1.52 -5.81,2.26l-10.2 -52.07c1.89,-0.57 3.85,-1.2 5.88,-1.9z"/>
   <path class="fil0" d="M515.38 816.59l16.84 86c-1.63,2.27 -3.26,4.58 -4.88,6.99l-17.06 -87.09c1.64,-1.94 3.33,-3.9 5.09,-5.9zm68.58 350.19l10.07 51.45c-1.92,0.8 -3.83,1.61 -5.78,2.39l-10.13 -51.71c1.89,-0.65 3.82,-1.35 5.83,-2.13z"/>
   <path class="fil0" d="M520.51 810.89l16.65 85.02c-1.65,2.15 -3.3,4.39 -4.94,6.68l-16.84 -86c1.65,-1.88 3.37,-3.78 5.13,-5.7zm69.24 353.53l10.06 51.37c-1.91,0.83 -3.84,1.63 -5.77,2.44l-10.07 -51.45c1.87,-0.73 3.81,-1.52 5.78,-2.36z"/>
   <path class="fil0" d="M525.63 805.44l16.49 84.2c-1.66,2.02 -3.31,4.11 -4.96,6.27l-16.65 -85.02c1.66,-1.8 3.37,-3.63 5.12,-5.45zm69.81 356.44l10.06 51.37c-1.89,0.86 -3.77,1.72 -5.69,2.55l-10.06 -51.37c1.85,-0.79 3.75,-1.64 5.69,-2.54z"/>
   <path class="fil0" d="M530.84 800.13l16.36 83.54c-1.7,1.93 -3.39,3.91 -5.08,5.98l-16.49 -84.2c1.69,-1.76 3.43,-3.54 5.21,-5.31zm70.31 358.99l10.09 51.51c-1.89,0.89 -3.82,1.75 -5.74,2.62l-10.06 -51.37c1.87,-0.87 3.77,-1.78 5.71,-2.76z"/>
   <path class="fil0" d="M536.08 795l16.26 83.01c-1.72,1.81 -3.43,3.72 -5.14,5.66l-16.36 -83.54c1.71,-1.71 3.45,-3.42 5.24,-5.13zm70.73 361.18l10.13 51.7c-1.89,0.93 -3.78,1.85 -5.7,2.76l-10.09 -51.51c1.86,-0.93 3.74,-1.91 5.67,-2.94z"/>
   <path class="fil0" d="M541.36 790.05l16.19 82.67c-1.74,1.7 -3.48,3.45 -5.21,5.29l-16.26 -83.01c1.72,-1.65 3.48,-3.3 5.28,-4.94zm71.09 363l10.19 52.02c-1.87,0.95 -3.79,1.87 -5.7,2.8l-10.13 -51.7c1.85,-0.99 3.72,-2.04 5.64,-3.13z"/>
   <path class="fil0" d="M546.67 785.29l16.15 82.46c-1.76,1.59 -3.52,3.25 -5.27,4.97l-16.19 -82.67c1.74,-1.59 3.51,-3.18 5.31,-4.76zm71.38 364.47l10.26 52.36c-1.89,0.99 -3.76,1.99 -5.67,2.96l-10.19 -52.02c1.83,-1.05 3.7,-2.15 5.6,-3.3z"/>
   <path class="fil0" d="M551.97 780.74l16.14 82.43c-1.76,1.46 -3.53,2.99 -5.29,4.59l-16.15 -82.46c1.74,-1.52 3.5,-3.04 5.3,-4.55zm71.6 365.6l10.35 52.82c-1.84,1 -3.74,1.97 -5.61,2.96l-10.26 -52.36c1.81,-1.1 3.65,-2.23 5.52,-3.42z"/>
   <path class="fil0" d="M557.36 776.31l16.17 82.56c-1.8,1.37 -3.6,2.79 -5.41,4.29l-16.14 -82.43c1.76,-1.48 3.56,-2.95 5.39,-4.42zm71.76 366.41l10.43 53.26c-1.87,1.06 -3.72,2.13 -5.63,3.17l-10.35 -52.82c1.82,-1.16 3.67,-2.36 5.54,-3.61z"/>
   <path class="fil0" d="M562.77 772.08l16.22 82.84c-1.82,1.25 -3.64,2.57 -5.47,3.95l-16.17 -82.56c1.78,-1.42 3.58,-2.83 5.41,-4.24zm71.85 366.88l10.54 53.82c-1.85,1.08 -3.74,2.15 -5.62,3.2l-10.43 -53.26c1.81,-1.21 3.65,-2.46 5.51,-3.76z"/>
   <path class="fil0" d="M568.22 768l16.31 83.31c-1.84,1.14 -3.69,2.34 -5.54,3.61l-16.22 -82.84c1.79,-1.37 3.6,-2.74 5.45,-4.08zm71.89 367.06l10.65 54.36c-1.85,1.13 -3.7,2.26 -5.59,3.36l-10.54 -53.82c1.81,-1.26 3.63,-2.56 5.48,-3.9z"/>
   <path class="fil0" d="M573.7 764.11l16.44 83.93c-1.87,1.02 -3.73,2.11 -5.61,3.27l-16.31 -83.31c1.8,-1.31 3.63,-2.61 5.48,-3.89zm71.85 366.89l10.77 54.97c-1.84,1.16 -3.7,2.3 -5.57,3.44l-10.65 -54.36c1.8,-1.31 3.61,-2.66 5.45,-4.06z"/>
   <path class="fil0" d="M579.22 760.37l16.59 84.74c-1.89,0.91 -3.78,1.89 -5.67,2.93l-16.44 -83.93c1.81,-1.26 3.65,-2.51 5.52,-3.74zm71.77 366.44l10.89 55.6c-1.83,1.2 -3.68,2.38 -5.55,3.56l-10.77 -54.97c1.8,-1.35 3.6,-2.74 5.43,-4.19z"/>
   <path class="fil0" d="M584.77 756.81l16.79 85.72c-1.91,0.8 -3.82,1.66 -5.74,2.58l-16.59 -84.74c1.83,-1.2 3.67,-2.39 5.55,-3.56zm71.62 365.69l11.01 56.23c-1.83,1.24 -3.66,2.47 -5.52,3.69l-10.89 -55.6c1.78,-1.4 3.58,-2.84 5.4,-4.32z"/>
   <path class="fil0" d="M590.3 753.45l17.01 86.85c-1.91,0.67 -3.83,1.43 -5.76,2.23l-16.79 -85.72c1.82,-1.14 3.67,-2.26 5.54,-3.36zm71.41 364.63l11.15 56.93c-1.79,1.26 -3.63,2.48 -5.46,3.72l-11.01 -56.23c1.76,-1.43 3.54,-2.91 5.33,-4.42z"/>
   <path class="fil0" d="M595.92 750.22l17.27 88.19c-1.95,0.57 -3.91,1.18 -5.88,1.88l-17.01 -86.85c1.85,-1.09 3.72,-2.17 5.62,-3.23zm71.15 363.28l11.27 57.55c-1.81,1.32 -3.62,2.65 -5.47,3.96l-11.15 -56.93c1.77,-1.49 3.55,-3.01 5.35,-4.57z"/>
   <path class="fil0" d="M601.57 747.16l17.57 89.71c-1.97,0.45 -3.95,0.96 -5.94,1.54l-17.27 -88.19c1.86,-1.04 3.74,-2.06 5.65,-3.06zm70.83 361.65l11.4 58.22c-1.8,1.35 -3.62,2.69 -5.46,4.03l-11.27 -57.55c1.76,-1.53 3.54,-3.09 5.33,-4.7z"/>
   <path class="fil0" d="M607.25 744.27l17.91 91.41c-2,0.33 -4,0.74 -6.02,1.19l-17.57 -89.71c1.87,-0.98 3.77,-1.95 5.68,-2.89zm70.45 359.71l11.53 58.89c-1.79,1.4 -3.61,2.79 -5.43,4.16l-11.4 -58.22c1.75,-1.57 3.52,-3.19 5.3,-4.83z"/>
   <path class="fil0" d="M612.96 741.56l18.28 93.31c-2.02,0.21 -4.05,0.48 -6.09,0.81l-17.91 -91.41c1.89,-0.93 3.8,-1.83 5.72,-2.71zm70 357.45l11.66 59.54c-1.79,1.44 -3.57,2.89 -5.4,4.31l-11.53 -58.89 2.61 -2.41c0.9,-0.85 1.78,-1.7 2.66,-2.56z"/>
   <path class="fil0" d="M618.71 739.01l18.69 95.41c-2.04,0.09 -4.09,0.24 -6.16,0.45l-18.28 -93.31c1.9,-0.87 3.81,-1.72 5.75,-2.55zm69.48 354.79l11.81 60.34c-1.77,1.48 -3.57,2.95 -5.38,4.41l-11.66 -59.54c1.78,-1.72 3.53,-3.46 5.23,-5.21z"/>
   <path class="fil0" d="M624.44 736.65l19.13 97.69c-2.04,-0.03 -4.1,-0.01 -6.17,0.08l-18.69 -95.41c1.89,-0.81 3.8,-1.59 5.73,-2.36zm68.87 351.66l12 61.3c-1.75,1.52 -3.51,3.04 -5.3,4.54l-11.81 -60.34c1.74,-1.81 3.45,-3.65 5.11,-5.49z"/>
   <path class="fil0" d="M630.25 734.43l19.63 100.21c-2.08,-0.16 -4.19,-0.26 -6.31,-0.3l-19.13 -97.69c1.92,-0.77 3.85,-1.51 5.81,-2.22zm68.15 348.01l12.23 62.44c-1.76,1.58 -3.52,3.16 -5.32,4.72l-12 -61.3c1.74,-1.94 3.44,-3.9 5.09,-5.87z"/>
   <path class="fil0" d="M636.1 732.37l20.17 102.96c-2.11,-0.3 -4.24,-0.52 -6.39,-0.69l-19.63 -100.21c1.93,-0.71 3.88,-1.4 5.85,-2.06zm67.34 343.83l12.5 63.83c-1.74,1.63 -3.52,3.24 -5.3,4.85l-12.23 -62.44c1.73,-2.06 3.41,-4.14 5.03,-6.23z"/>
   <path class="fil0" d="M641.98 730.5l20.74 105.93c-2.13,-0.43 -4.28,-0.79 -6.46,-1.1l-20.17 -102.96c1.94,-0.65 3.9,-1.27 5.88,-1.87zm66.4 339.04l12.82 65.49c-1.73,1.68 -3.48,3.35 -5.26,5.01l-12.5 -63.83c1.7,-2.2 3.34,-4.43 4.94,-6.67z"/>
   <path class="fil0" d="M647.89 728.8l21.37 109.14c-2.15,-0.57 -4.33,-1.07 -6.54,-1.52l-20.74 -105.93c1.95,-0.59 3.93,-1.16 5.91,-1.7zm65.33 333.61l13.2 67.41c-1.73,1.74 -3.46,3.47 -5.23,5.19l-12.82 -65.49c1.68,-2.36 3.3,-4.73 4.85,-7.12z"/>
   <path class="fil0" d="M653.84 727.27l22.06 112.64c-2.17,-0.72 -4.38,-1.37 -6.63,-1.96l-21.37 -109.14c1.96,-0.54 3.94,-1.05 5.94,-1.53zm64.14 327.5l13.65 69.72c-1.71,1.79 -3.44,3.56 -5.2,5.33l-13.2 -67.41c1.65,-2.53 3.24,-5.08 4.75,-7.64z"/>
   <path class="fil0" d="M659.77 725.93l22.79 116.39c-2.18,-0.86 -4.4,-1.66 -6.67,-2.41l-22.06 -112.64c1.96,-0.48 3.94,-0.92 5.93,-1.35zm62.79 320.63l14.2 72.51c-1.68,1.82 -3.4,3.63 -5.13,5.43l-13.65 -69.72c1.6,-2.72 3.13,-5.47 4.58,-8.22z"/>
   <path class="fil0" d="M665.78 724.74l23.6 120.5c-2.22,-1.03 -4.49,-2.02 -6.82,-2.93l-22.79 -116.39c1.09,-0.23 2.18,-0.47 3.28,-0.69 0.92,-0.18 1.82,-0.33 2.73,-0.5zm61.26 312.81l14.85 75.81c-1.69,1.91 -3.39,3.81 -5.13,5.7l-14.2 -72.51c1.58,-2.99 3.07,-5.99 4.48,-9z"/>
   <path class="fil0" d="M671.83 723.75l24.48 124.97c-2.24,-1.21 -4.55,-2.37 -6.93,-3.47l-23.6 -120.5c2.04,-0.36 4.06,-0.7 6.05,-1zm59.52 303.91l15.63 79.83c-1.68,1.96 -3.37,3.93 -5.09,5.88l-14.85 -75.81c1.54,-3.29 2.98,-6.58 4.31,-9.89z"/>
   <path class="fil0" d="M677.93 722.95l25.43 129.84c-2.26,-1.4 -4.61,-2.77 -7.04,-4.07l-24.48 -124.97c2.05,-0.3 4.09,-0.57 6.09,-0.8zm57.52 293.68l16.61 84.81c-1.66,2.02 -3.35,4.04 -5.06,6.05l-15.63 -79.83c1.48,-3.67 2.84,-7.35 4.08,-11.03z"/>
   <path class="fil0" d="M684.06 722.37l26.51 135.35c-1.02,-0.8 -2.04,-1.56 -3.08,-2.26l0 0c-1.34,-0.9 -2.72,-1.78 -4.13,-2.66l-25.43 -129.84c2.07,-0.23 4.11,-0.43 6.13,-0.59zm55.18 281.75l17.84 91.07c-1.64,2.09 -3.32,4.17 -5.02,6.25l-16.61 -84.81c1.41,-4.17 2.68,-8.35 3.8,-12.52z"/>
   <path class="fil0" d="M690.24 722.02l27.97 142.83c-2.43,-2.68 -4.98,-5.05 -7.64,-7.13l-26.51 -135.35c2.08,-0.16 4.14,-0.27 6.18,-0.35zm52.35 267.32l19.47 99.4c-1.63,2.16 -3.3,4.3 -4.98,6.45l-17.84 -91.07c1.32,-4.94 2.43,-9.87 3.35,-14.77z"/>
   <path class="fil0" d="M696.47 721.92l30.2 154.19c-2.61,-4.15 -5.43,-7.93 -8.46,-11.26l-27.97 -142.83c2.1,-0.08 4.18,-0.11 6.23,-0.1zm48.72 248.8l21.8 111.33c-1.61,2.24 -3.26,4.47 -4.94,6.69l-19.47 -99.4c1.18,-6.27 2.04,-12.48 2.6,-18.62z"/>
   <path class="fil0" d="M702.69 722.06l34.5 176.18c-2.9,-8.19 -6.44,-15.63 -10.52,-22.13l-30.2 -154.19c2.1,0.01 4.17,0.05 6.22,0.14zm42.99 219.49l26.17 133.63c-1.59,2.29 -3.19,4.58 -4.85,6.87l-21.8 -111.33c0.92,-10 1.06,-19.78 0.48,-29.17z"/>
   <path class="fil0" d="M709.01 722.47l67.67 345.55c-1.58,2.39 -3.2,4.78 -4.84,7.16l-26.17 -133.63c-0.97,-15.78 -3.94,-30.46 -8.48,-43.31l-34.5 -176.18c2.13,0.09 4.25,0.22 6.33,0.41z"/>
   <path class="fil0" d="M715.41 723.21l66.08 337.39c-1.57,2.48 -3.16,4.95 -4.8,7.43l-67.67 -345.55c2.17,0.19 4.29,0.45 6.39,0.74z"/>
   <path class="fil0" d="M721.85 724.24l64.37 328.67c-1.54,2.56 -3.13,5.12 -4.74,7.69l-66.08 -337.39c2.18,0.3 4.33,0.63 6.45,1.03z"/>
   <path class="fil0" d="M728.37 725.64l62.53 319.29c-1.52,2.66 -3.08,5.32 -4.68,7.98l-64.37 -328.67c2.21,0.41 4.38,0.89 6.52,1.4z"/>
   <path class="fil0" d="M734.91 727.37l60.58 309.34c-1.48,2.73 -3.01,5.47 -4.58,8.21l-62.53 -319.29c2.22,0.53 4.39,1.11 6.53,1.74z"/>
   <path class="fil0" d="M741.58 729.57l58.46 298.52c-1.47,2.87 -3,5.75 -4.56,8.63l-60.58 -309.34c2.27,0.68 4.49,1.41 6.68,2.19z"/>
   <path class="fil0" d="M748.35 732.2l56.19 286.91c-1.44,2.98 -2.95,5.98 -4.49,8.98l-58.46 -298.52c2.3,0.82 4.56,1.7 6.77,2.64z"/>
   <path class="fil0" d="M755.21 735.35l53.72 274.33c-1.42,3.13 -2.87,6.26 -4.4,9.42l-56.19 -286.91c2.33,0.99 4.62,2.04 6.86,3.15z"/>
   <path class="fil0" d="M762.19 739.09l51.07 260.76c-1.39,3.26 -2.82,6.54 -4.32,9.83l-53.72 -274.33c2.38,1.18 4.71,2.43 6.98,3.74z"/>
   <path class="fil0" d="M769.3 743.5l48.19 246.05c-1.34,3.41 -2.76,6.85 -4.23,10.3l-51.07 -260.76c2.43,1.4 4.8,2.88 7.11,4.41z"/>
   <path class="fil0" d="M776.56 748.69l45.04 229.95c-1.31,3.61 -2.66,7.24 -4.11,10.91l-48.19 -246.05c2.49,1.66 4.91,3.39 7.26,5.19z"/>
   <path class="fil0" d="M783.94 754.74l41.62 212.51c-1.24,3.75 -2.57,7.56 -3.96,11.4l-45.04 -229.95c2.54,1.94 5,3.96 7.38,6.04z"/>
   <path class="fil0" d="M791.6 761.97l37.8 192.98c-1.19,4.04 -2.46,8.13 -3.84,12.3l-41.62 -212.51c2.65,2.33 5.2,4.74 7.66,7.23z"/>
   <path class="fil0" d="M799.55 770.63l33.51 171.1c-1.11,4.32 -2.33,8.73 -3.66,13.22l-37.8 -192.98c2.77,2.8 5.42,5.69 7.94,8.66z"/>
   <path class="fil0" d="M807.86 781.2l28.62 146.13c-1,4.66 -2.16,9.47 -3.43,14.4l-33.51 -171.1c2.93,3.44 5.7,6.97 8.31,10.57z"/>
   <path class="fil0" d="M816.74 794.66l22.81 116.49c-0.85,5.17 -1.87,10.56 -3.08,16.17l-28.62 -146.13c3.2,4.41 6.15,8.91 8.88,13.46z"/>
   <path class="fil0" d="M826.55 813.08l15.5 79.16c-0.56,5.84 -1.38,12.17 -2.49,18.92l-22.81 -116.49c3.67,6.11 6.93,12.29 9.8,18.42z"/>
   <path class="fil0" d="M841.21 856.07l0.64 3.24c1.33,7.39 1.54,18.71 0.2,32.92l-15.5 -79.16c7.21,15.38 11.99,30.42 14.67,43z"/>
   <polygon class="fil0" points="841.85,859.31 841.21,856.07 "/>
  </g>
 </g>
</svg>
