<?xml version="1.0" encoding="UTF-8"?>
<!DOCTYPE svg PUBLIC "-//W3C//DTD SVG 1.1//EN" "http://www.w3.org/Graphics/SVG/1.1/DTD/svg11.dtd">
<!-- Creator: CorelDRAW 2020 (64-Bit Evaluation Version) -->
<svg xmlns="http://www.w3.org/2000/svg" xml:space="preserve" width="1.25in" height="1.35in" version="1.1" style="shape-rendering:geometricPrecision; text-rendering:geometricPrecision; image-rendering:optimizeQuality; fill-rule:evenodd; clip-rule:evenodd"
viewBox="0 0 1250 1350"
 xmlns:xlink="http://www.w3.org/1999/xlink"
 xmlns:xodm="http://www.corel.com/coreldraw/odm/2003">
 <defs>
  <style type="text/css">
   <![CDATA[
    .fil0 {fill:#FEFEFE;fill-rule:nonzero}
   ]]>
  </style>
 </defs>
 <g id="Layer_x0020_1">
  <metadata id="CorelCorpID_0Corel-Layer"/>
  <path class="fil0" d="M46.55 485.16l52.81 129.94 172.53 424.56c-41.14,-9.96 -90.31,22.54 -113.85,77.56 -25.41,59.4 -11.34,122.42 31.52,140.8 42.81,18.22 98.1,-15.01 123.55,-74.42 15.41,-36.11 16.18,-73.45 4.91,-101.34l0.12 -0.05 -193.93 -477.2 400.81 -162.86 172.55 424.5c-41.17,-9.95 -90.3,22.61 -113.88,77.59 -25.39,59.44 -11.32,122.39 31.55,140.77 42.77,18.26 98.12,-14.99 123.52,-74.41 15.45,-36.07 16.21,-73.43 4.94,-101.34l0.09 -0.02 -193.93 -477.2 400.82 -162.91 172.54 424.56c-41.14,-9.98 -90.31,22.58 -113.83,77.56 -25.42,59.44 -11.34,122.42 31.5,140.8 42.82,18.24 98.13,-15 123.55,-74.44 15.45,-36.08 16.22,-73.43 4.95,-101.32l0.07 -0.04 -193.91 -477.2 -52.83 -129.96 -876.18 356.08z"/>
 </g>
</svg>
