<?xml version="1.0" encoding="UTF-8"?>
<!DOCTYPE svg PUBLIC "-//W3C//DTD SVG 1.1//EN" "http://www.w3.org/Graphics/SVG/1.1/DTD/svg11.dtd">
<!-- Creator: CorelDRAW 2020 (64-Bit Evaluation Version) -->
<svg xmlns="http://www.w3.org/2000/svg" xml:space="preserve" width="1.3in" height="1.35in" version="1.1" style="shape-rendering:geometricPrecision; text-rendering:geometricPrecision; image-rendering:optimizeQuality; fill-rule:evenodd; clip-rule:evenodd"
viewBox="0 0 1300 1350"
 xmlns:xlink="http://www.w3.org/1999/xlink"
 xmlns:xodm="http://www.corel.com/coreldraw/odm/2003">
 <defs>
  <style type="text/css">
   <![CDATA[
    .fil0 {fill:url(#id0);fill-rule:nonzero}
   ]]>
  </style>
  <linearGradient id="id0" gradientUnits="userSpaceOnUse" x1="70.53" y1="871.21" x2="1199.09" y2="650.19">
   <stop offset="0" style="stop-opacity:1; stop-color:black"/>
   <stop offset="1" style="stop-opacity:1; stop-color:#4E4E4E"/>
  </linearGradient>
 </defs>
 <g id="Layer_x0020_1">
  <metadata id="CorelCorpID_0Corel-Layer"/>
  <path class="fil0" d="M282.69 387.23l-2.62 128.76 -8.51 420.78c-31.1,-23.36 -84.39,-13.78 -124.2,24.1 -42.97,40.89 -53.98,99.14 -24.49,130.18 29.49,30.96 88.2,22.94 131.23,-17.92 26.12,-24.88 40.29,-56.12 40.92,-83.74l0.13 0.03 9.57 -472.93 397.22 8.06 -8.5 420.73c-31.11,-23.36 -84.38,-13.68 -124.2,24.11 -43.01,40.94 -53.99,99.14 -24.5,130.2 29.47,30.95 88.22,22.98 131.22,-17.92 26.12,-24.85 40.32,-56.07 40.94,-83.7l0.08 -0.01 9.57 -472.93 397.26 8.06 -8.53 420.74c-31.09,-23.37 -84.37,-13.69 -124.17,24.14 -43.02,40.91 -54,99.16 -24.52,130.2 29.49,30.91 88.22,22.94 131.24,-17.96 26.12,-24.84 40.32,-56.08 40.93,-83.66l0.08 -0.02 9.57 -472.93 2.61 -128.8 -868.33 -17.57z"/>
 </g>
</svg>
