<?xml version="1.0" encoding="UTF-8"?>
<!DOCTYPE svg PUBLIC "-//W3C//DTD SVG 1.1//EN" "http://www.w3.org/Graphics/SVG/1.1/DTD/svg11.dtd">
<!-- Creator: CorelDRAW 2020 (64-Bit Evaluation Version) -->
<svg xmlns="http://www.w3.org/2000/svg" xml:space="preserve" width="1.3in" height="1.35in" version="1.1" style="shape-rendering:geometricPrecision; text-rendering:geometricPrecision; image-rendering:optimizeQuality; fill-rule:evenodd; clip-rule:evenodd"
viewBox="0 0 1300 1350"
 xmlns:xlink="http://www.w3.org/1999/xlink"
 xmlns:xodm="http://www.corel.com/coreldraw/odm/2003">
 <defs>
  <style type="text/css">
   <![CDATA[
    .fil0 {fill:#CACAC9;fill-rule:nonzero}
   ]]>
  </style>
 </defs>
 <g id="Layer_x0020_1">
  <metadata id="CorelCorpID_0Corel-Layer"/>
  <g id="_2301561419168">
   <g>
    <path class="fil0" d="M304.81 381.4l-2.62 128.76 -8.51 420.78c-31.1,-23.36 -84.39,-13.78 -124.2,24.1 -42.97,40.89 -53.98,99.14 -24.49,130.18 29.49,30.96 88.2,22.95 131.23,-17.92 26.12,-24.88 40.29,-56.11 40.92,-83.74l0.13 0.03 9.57 -472.93 397.22 8.06 -8.5 420.73c-31.11,-23.36 -84.38,-13.69 -124.2,24.11 -43.01,40.94 -53.99,99.14 -24.5,130.19 29.48,30.95 88.22,22.98 131.22,-17.92 26.12,-24.85 40.32,-56.08 40.94,-83.7l0.07 -0.01 9.57 -472.92 397.26 8.05 -8.53 420.74c-31.09,-23.36 -84.37,-13.69 -124.17,24.14 -43.02,40.91 -54,99.15 -24.52,130.2 29.5,30.9 88.22,22.94 131.24,-17.96 26.12,-24.84 40.32,-56.07 40.93,-83.66l0.08 -0.02 9.57 -472.93 2.61 -128.8 -868.34 -17.58z"/>
   </g>
   <path class="fil0" d="M136.82 1001.63l17.98 91.79c-3.53,-2.34 -6.82,-5.06 -9.8,-8.19 -7.75,-8.15 -12.7,-18.19 -15.01,-29.3l-0.26 -1.35c-3.05,-16.28 -0.53,-34.76 7.1,-52.94z"/>
   <path class="fil0" d="M149.74 978.12l24.22 123.67c-6.93,-1.76 -13.38,-4.55 -19.16,-8.37l-17.98 -91.79c3.34,-7.96 7.67,-15.87 12.92,-23.51z"/>
   <path class="fil0" d="M163.8 960.74l28.07 143.32c-6.21,-0.08 -12.22,-0.83 -17.91,-2.27l-24.22 -123.67c4.12,-5.99 8.81,-11.81 14.06,-17.38z"/>
   <path class="fil0" d="M178.59 947.06l30.47 155.59c-5.85,1.01 -11.6,1.48 -17.2,1.41l-28.07 -143.32c1.83,-1.93 3.72,-3.83 5.68,-5.7 2.97,-2.82 6.01,-5.48 9.11,-7.98z"/>
   <path class="fil0" d="M193.99 936.19l31.76 162.19c-5.59,1.89 -11.18,3.31 -16.69,4.27l-30.47 -155.59c5,-4.04 10.14,-7.67 15.39,-10.87z"/>
   <path class="fil0" d="M209.83 927.89l32.06 163.72c-5.35,2.69 -10.75,4.94 -16.15,6.77l-31.76 -162.19c5.21,-3.18 10.51,-5.95 15.85,-8.3z"/>
   <path class="fil0" d="M226.21 922.04l31.39 160.3c-5.14,3.5 -10.39,6.59 -15.71,9.26l-32.06 -163.72c5.45,-2.4 10.93,-4.35 16.38,-5.85z"/>
   <path class="fil0" d="M243.05 918.81l29.7 151.67c-4.89,4.37 -9.96,8.32 -15.15,11.86l-31.39 -160.3c5.67,-1.57 11.31,-2.65 16.84,-3.23z"/>
   <path class="fil0" d="M260.49 918.67l26.81 136.88c-3.41,4.04 -7.11,7.97 -11.08,11.75 -1.14,1.09 -2.3,2.14 -3.46,3.18l-29.7 -151.67c5.97,-0.63 11.81,-0.67 17.44,-0.14z"/>
   <path class="fil0" d="M278.77 922.8l22.22 113.48c-3.89,6.6 -8.46,13.06 -13.7,19.26l-26.81 -136.88c6.41,0.61 12.55,1.98 18.28,4.13z"/>
   <path class="fil0" d="M294.08 911.49l19.02 97.15c-2.71,9.26 -6.77,18.58 -12.11,27.65l-22.22 -113.48c5.37,2.02 10.38,4.72 14.92,8.13l0.39 -19.44z"/>
   <path class="fil0" d="M295.72 830.63l22.34 114.06 -0.79 38.9 -0.13 -0.03c-0.19,8.13 -1.54,16.57 -4.03,25.07l-19.02 -97.15 1.63 -80.86z"/>
   <polygon class="fil0" points="297.36,749.51 319.7,863.59 318.06,944.7 295.72,830.63 "/>
   <polygon class="fil0" points="298.99,668.67 321.33,782.75 319.7,863.59 297.36,749.51 "/>
   <polygon class="fil0" points="300.63,587.81 322.97,701.9 321.33,782.75 298.99,668.67 "/>
   <polygon class="fil0" points="302.27,506.71 324.61,620.8 322.97,701.9 300.63,587.81 302.2,510.16 "/>
   <polygon class="fil0" points="303.91,425.89 326.25,539.95 324.61,620.8 302.27,506.71 "/>
   <polygon class="fil0" points="312.75,381.57 338.08,510.9 326.84,510.67 326.25,539.95 303.91,425.89 304.81,381.4 "/>
   <polygon class="fil0" points="330.3,381.92 355.62,511.26 338.08,510.9 312.75,381.57 "/>
   <polygon class="fil0" points="347.83,382.27 373.16,511.61 355.62,511.26 330.3,381.92 "/>
   <polygon class="fil0" points="365.37,382.63 390.7,511.97 373.16,511.61 347.83,382.27 "/>
   <polygon class="fil0" points="382.96,382.98 408.3,512.32 390.7,511.97 365.37,382.63 "/>
   <polygon class="fil0" points="400.5,383.34 425.84,512.68 408.3,512.32 382.96,382.98 "/>
   <polygon class="fil0" points="418.1,383.7 443.43,513.04 425.84,512.68 400.5,383.34 "/>
   <path class="fil0" d="M435.64 384.05l25.33 129.34 -17.54 -0.35 -25.33 -129.34 17.54 0.35zm122.76 626.8l17.78 90.79c-3.35,-2.27 -6.47,-4.89 -9.31,-7.88 -19.2,-20.22 -21.24,-51.94 -8.46,-82.91z"/>
   <path class="fil0" d="M453.18 384.41l25.33 129.34 -17.54 -0.36 -25.33 -129.34 17.54 0.35zm118.06 602.8l24.09 123c-6.93,-1.82 -13.38,-4.66 -19.14,-8.56l-17.78 -90.79c3.3,-8 7.59,-15.96 12.83,-23.65z"/>
   <path class="fil0" d="M470.78 384.76l25.33 129.34 -17.6 -0.35 -25.33 -129.34 17.6 0.35zm114.55 584.89l28 142.94c-6.25,-0.11 -12.29,-0.91 -18,-2.4l-24.09 -123c4.12,-6.05 8.82,-11.93 14.09,-17.55z"/>
   <path class="fil0" d="M488.31 385.12l25.33 129.34 -17.54 -0.36 -25.33 -129.34 17.54 0.36zm111.79 570.78l30.43 155.37c-5.85,0.98 -11.61,1.43 -17.2,1.33l-28 -142.94c1.94,-2.07 3.95,-4.09 6.04,-6.08 2.85,-2.7 5.76,-5.26 8.74,-7.67z"/>
   <path class="fil0" d="M505.91 385.47l25.33 129.35 -17.6 -0.36 -25.33 -129.34 17.6 0.35zm109.57 559.51l31.74 162.09c-5.6,1.87 -11.19,3.28 -16.7,4.2l-30.43 -155.37c4.99,-4.06 10.14,-7.7 15.39,-10.92z"/>
   <path class="fil0" d="M523.44 385.83l25.33 129.35 -17.54 -0.35 -25.33 -129.35 17.54 0.35zm107.87 550.8l32.06 163.72c-5.35,2.67 -10.75,4.91 -16.15,6.71l-31.74 -162.09c5.2,-3.2 10.5,-5.98 15.83,-8.35z"/>
   <path class="fil0" d="M540.99 386.19l25.33 129.35 -17.54 -0.36 -25.33 -129.35 17.54 0.36zm106.65 544.55l31.43 160.45c-5.13,3.47 -10.38,6.53 -15.68,9.17l-32.06 -163.72c5.43,-2.41 10.89,-4.37 16.31,-5.9z"/>
   <path class="fil0" d="M558.58 386.54l25.33 129.35 -17.59 -0.35 -25.33 -129.35 17.59 0.35zm105.93 540.88l29.76 151.94c-4.91,4.36 -10,8.31 -15.2,11.83l-31.43 -160.45c5.68,-1.59 11.33,-2.7 16.87,-3.31z"/>
   <path class="fil0" d="M576.12 386.89l25.33 129.35 -17.54 -0.36 -25.33 -129.35 17.54 0.35zm105.81 540.28l26.89 137.32c-3.32,3.9 -6.9,7.7 -10.74,11.35 -1.26,1.2 -2.53,2.37 -3.82,3.51l-29.76 -151.94c5.96,-0.66 11.8,-0.74 17.43,-0.24z"/>
   <path class="fil0" d="M593.66 387.25l25.33 129.35 -17.54 -0.35 -25.33 -129.35 17.54 0.35zm106.52 543.93l22.37 114.21c-3.91,6.55 -8.5,12.96 -13.73,19.11l-26.89 -137.32c6.4,0.57 12.53,1.89 18.25,4z"/>
   <path class="fil0" d="M611.26 387.61l25.33 129.35 -17.59 -0.36 -25.33 -129.35 17.59 0.36zm104.66 534.39l18.82 96.09c-2.77,9.15 -6.84,18.35 -12.18,27.3l-22.37 -114.21c5.54,2.04 10.71,4.79 15.37,8.29l0.35 -17.47z"/>
   <path class="fil0" d="M628.79 387.96l25.33 129.35 -17.54 -0.36 -25.33 -129.35 17.54 0.35zm88.76 453.19l22.3 113.88 -0.75 37.1 -0.07 0.02c-0.19,8.4 -1.63,17.14 -4.29,25.94l-18.82 -96.09 1.63 -80.85z"/>
   <path class="fil0" d="M646.33 388.31l25.33 129.35 -17.54 -0.35 -25.33 -129.35 17.54 0.35zm72.85 371.97l22.31 113.9 -1.64 80.85 -22.3 -113.88 1.63 -80.87z"/>
   <path class="fil0" d="M663.93 388.67l25.33 129.35 -17.59 -0.36 -25.33 -129.35 17.59 0.36zm56.89 290.5l22.31 113.91 -1.64 81.1 -22.31 -113.9 1.64 -81.11z"/>
   <path class="fil0" d="M681.47 389.03l25.33 129.35 -17.54 -0.35 -25.33 -129.35 17.54 0.35zm40.99 209.29l22.31 113.92 -1.63 80.85 -22.31 -113.91 1.64 -80.86z"/>
   <polygon class="fil0" points="699.06,389.38 746.41,631.14 744.76,712.24 722.46,598.31 724.06,518.73 706.8,518.38 681.47,389.03 "/>
   <polygon class="fil0" points="716.6,389.74 748.04,550.29 746.41,631.14 699.06,389.38 "/>
   <polygon class="fil0" points="734.14,390.09 759.47,519.43 748.67,519.21 748.04,550.29 716.6,389.74 "/>
   <polygon class="fil0" points="751.74,390.45 777.06,519.78 759.47,519.43 734.14,390.09 "/>
   <polygon class="fil0" points="769.27,390.8 794.6,520.14 777.06,519.78 751.74,390.45 "/>
   <polygon class="fil0" points="786.87,391.16 812.2,520.5 794.6,520.14 769.27,390.8 "/>
   <polygon class="fil0" points="804.41,391.52 829.74,520.85 812.2,520.5 786.87,391.16 "/>
   <polygon class="fil0" points="821.95,391.87 847.28,521.21 829.74,520.85 804.41,391.52 "/>
   <polygon class="fil0" points="839.49,392.22 864.82,521.56 847.28,521.21 821.95,391.87 "/>
   <path class="fil0" d="M857.08 392.58l25.33 129.33 -17.59 -0.35 -25.33 -129.34 17.59 0.36zm122.9 627.53l17.58 89.76c-3.17,-2.19 -6.13,-4.7 -8.84,-7.54 -19.05,-20.06 -21.2,-51.47 -8.74,-82.22z"/>
   <path class="fil0" d="M874.62 392.93l25.33 129.34 -17.54 -0.35 -25.33 -129.33 17.54 0.35zm118.15 603.31l23.97 122.39c-6.96,-1.87 -13.42,-4.78 -19.19,-8.75l-17.58 -89.76c3.27,-8.07 7.55,-16.11 12.8,-23.87z"/>
   <path class="fil0" d="M892.22 393.29l25.33 129.34 -17.59 -0.36 -25.33 -129.34 17.59 0.36zm114.63 585.31l27.91 142.53c-6.26,-0.14 -12.3,-0.97 -18.02,-2.5l-23.97 -122.39c4.11,-6.07 8.8,-11.99 14.07,-17.64z"/>
   <path class="fil0" d="M909.76 393.65l25.33 129.34 -17.54 -0.36 -25.33 -129.34 17.54 0.36zm111.85 571.11l30.38 155.11c-5.86,0.96 -11.63,1.39 -17.22,1.26l-27.91 -142.53c2.04,-2.19 4.17,-4.35 6.39,-6.46 2.73,-2.59 5.52,-5.05 8.37,-7.37z"/>
   <path class="fil0" d="M927.29 394l25.33 129.34 -17.54 -0.35 -25.33 -129.34 17.54 0.35zm109.63 559.79l31.72 161.95c-5.58,1.84 -11.16,3.22 -16.66,4.13l-30.38 -155.11c4.97,-4.07 10.09,-7.73 15.32,-10.97z"/>
   <path class="fil0" d="M944.89 394.36l25.33 129.34 -17.59 -0.36 -25.33 -129.34 17.6 0.36zm107.91 550.99l32.06 163.72c-5.37,2.66 -10.8,4.88 -16.22,6.67l-31.72 -161.95c5.22,-3.24 10.53,-6.05 15.87,-8.44z"/>
   <path class="fil0" d="M962.43 394.71l25.33 129.34 -17.54 -0.35 -25.33 -129.34 17.54 0.35zm106.67 544.67l31.45 160.57c-5.14,3.45 -10.39,6.49 -15.69,9.11l-32.06 -163.72c5.42,-2.43 10.87,-4.41 16.3,-5.96z"/>
   <path class="fil0" d="M980.02 395.07l25.33 129.34 -17.59 -0.36 -25.33 -129.34 17.59 0.36zm105.94 540.93l29.81 152.21c-4.91,4.33 -10.01,8.25 -15.22,11.75l-31.45 -160.57c5.68,-1.62 11.32,-2.75 16.87,-3.39z"/>
   <path class="fil0" d="M997.56 395.43l25.33 129.34 -17.54 -0.36 -25.33 -129.34 17.54 0.35zm105.8 540.25l26.98 137.77c-3.22,3.75 -6.69,7.41 -10.39,10.93 -1.38,1.31 -2.78,2.59 -4.19,3.83l-29.81 -152.21c5.95,-0.68 11.78,-0.8 17.4,-0.33z"/>
   <path class="fil0" d="M1015.1 395.78l25.33 129.34 -17.54 -0.35 -25.33 -129.34 17.54 0.35zm106.49 543.76l22.51 114.93c-3.92,6.51 -8.51,12.87 -13.75,18.98l-26.98 -137.77c6.39,0.53 12.51,1.81 18.23,3.87z"/>
   <path class="fil0" d="M1032.64 396.14l25.33 129.34 -17.54 -0.36 -25.33 -129.34 17.54 0.36zm105.07 536.53l18.59 94.93c-2.81,9.02 -6.9,18.07 -12.2,26.88l-22.51 -114.93c5.71,2.05 11.02,4.86 15.81,8.46l0.31 -15.33z"/>
   <path class="fil0" d="M1050.24 396.49l25.33 129.34 -17.59 -0.35 -25.33 -129.34 17.59 0.35zm89.13 455.07l22.31 113.96 -0.71 35.18 -0.08 0.02c-0.19,8.7 -1.74,17.76 -4.58,26.87l-18.59 -94.93 1.65 -81.11z"/>
   <path class="fil0" d="M1067.78 396.85l25.33 129.34 -17.54 -0.36 -25.33 -129.34 17.54 0.36zm73.22 373.87l22.31 113.94 -1.64 80.85 -22.31 -113.96 1.64 -80.84z"/>
   <path class="fil0" d="M1085.37 397.2l25.33 129.34 -17.59 -0.35 -25.33 -129.34 17.59 0.35zm57.27 292.43l22.31 113.94 -1.64 81.09 -22.31 -113.94 1.64 -81.09z"/>
   <path class="fil0" d="M1102.91 397.56l25.33 129.35 -17.54 -0.36 -25.33 -129.34 17.54 0.35zm41.37 211.26l22.31 113.93 -1.64 80.83 -22.31 -113.94 1.64 -80.82z"/>
   <path class="fil0" d="M1120.45 397.91l25.33 129.35 -17.54 -0.35 -25.33 -129.35 17.54 0.35zm25.47 130.06l22.31 113.92 -1.63 80.85 -22.31 -113.93 1.64 -80.85z"/>
   <polygon class="fil0" points="1138.05,398.27 1169.87,560.77 1168.23,641.88 1145.92,527.96 1145.93,527.26 1145.78,527.26 1120.45,397.91 "/>
   <polygon class="fil0" points="1155.58,398.63 1171.51,479.94 1170.54,527.78 1169.87,560.77 1138.05,398.27 "/>
   <polygon class="fil0" points="1171.51,479.94 1155.58,398.63 1173.15,398.98 "/>
  </g>
 </g>
</svg>
