<?xml version="1.0" encoding="UTF-8"?>
<!DOCTYPE svg PUBLIC "-//W3C//DTD SVG 1.1//EN" "http://www.w3.org/Graphics/SVG/1.1/DTD/svg11.dtd">
<!-- Creator: CorelDRAW 2020 (64-Bit Evaluation Version) -->
<svg xmlns="http://www.w3.org/2000/svg" xml:space="preserve" width="1.25in" height="1.35in" version="1.1" style="shape-rendering:geometricPrecision; text-rendering:geometricPrecision; image-rendering:optimizeQuality; fill-rule:evenodd; clip-rule:evenodd"
viewBox="0 0 1250 1350"
 xmlns:xlink="http://www.w3.org/1999/xlink"
 xmlns:xodm="http://www.corel.com/coreldraw/odm/2003">
 <defs>
  <style type="text/css">
   <![CDATA[
    .fil0 {fill:url(#id0);fill-rule:nonzero}
   ]]>
  </style>
  <linearGradient id="id0" gradientUnits="userSpaceOnUse" x1="85.38" y1="653.06" x2="1132.81" y2="653.06">
   <stop offset="0" style="stop-opacity:1; stop-color:black"/>
   <stop offset="0.658824" style="stop-opacity:1; stop-color:#3E3E3E"/>
   <stop offset="1" style="stop-opacity:1; stop-color:#7D7D7D"/>
  </linearGradient>
 </defs>
 <g id="Layer_x0020_1">
  <metadata id="CorelCorpID_0Corel-Layer"/>
  <g id="layer1">
   <g id="g2912">
    <path id="path2918" class="fil0" d="M718.61 931.12c-163.48,-8.67 -291.23,-153.77 -342.47,-303.83 -31.06,-88.09 -14,-220.23 89.46,-244.95 149.91,-25.44 274.28,101.87 344.02,223.72 49.66,90.4 77.12,232.72 -16.01,304.37 -22.09,14.83 -48.83,20.76 -75,20.69zm260.43 -514.48c-184.17,-111.84 -416.82,-120.55 -618.52,-57.97 -127.75,44.69 -273.85,139.69 -275.07,294.36 -0.07,151.5 140.92,246.04 265.68,291.05 197.52,64.63 425.45,58.94 609.88,-44.08 104.39,-55.52 196.95,-170.54 165.57,-298.03 -17.28,-81.97 -80.07,-143.29 -147.54,-185.32z"/>
   </g>
  </g>
 </g>
</svg>
